<?xml version="1.0" encoding="utf-8"?>
<!-- Generator: Adobe Illustrator 26.0.1, SVG Export Plug-In . SVG Version: 6.00 Build 0)  -->
<svg version="1.1" id="Layer_1" xmlns="http://www.w3.org/2000/svg" xmlns:xlink="http://www.w3.org/1999/xlink" x="0px" y="0px"
	 viewBox="0 0 100 100" style="enable-background:new 0 0 100 100;" xml:space="preserve">
<style type="text/css">
	.st0{fill:#3566B1;}
	.st1{fill:#FFFFFF;}
	.st2{fill:#53AE94;}
</style>
<g>
	<path class="st0" d="M40.7,25.3c13.7,5.2,20.6,20.4,15.4,34s-20.4,20.6-34,15.4C8.4,69.5,1.5,54.3,6.7,40.7l0,0
		C11.9,27,27.1,20.1,40.7,25.3"/>
	<path class="st1" d="M37.4,32.1c1.1-0.1,1.8,1.3,1,2c-0.5,0.5-1.3,0.5-1.8-0.1c-0.1,0-0.2-0.2-0.2-0.2c-0.3-0.5-0.1-1.3,0.5-1.5
		C37,32.2,37.2,32.1,37.4,32.1 M27.3,29.6c0.5,0,0.9,0.4,1,0.9c0,0.5-0.4,0.9-0.9,1c-0.3,0-0.5-0.1-0.8-0.3
		c-0.4-0.4-0.4-0.9-0.1-1.3C26.8,29.6,27.2,29.5,27.3,29.6 M46.5,38.4c-0.4-0.3-0.6-0.7-0.4-1.2c0.1-0.3,0.5-0.5,0.8-0.5
		c0.5,0,1,0.5,1,1c0,0.1-0.1,0.2,0,0.3C47.6,38.5,47,38.7,46.5,38.4L46.5,38.4 M28.2,34.3c0.8-0.1,1.5,0.5,1.7,1.2
		c0,0.2,0,0.5-0.1,0.8c-0.4,0.7-1.3,1-2,0.6c-0.2-0.1-0.4-0.3-0.6-0.5c-0.4-0.7-0.2-1.5,0.4-1.9C27.7,34.3,28,34.3,28.2,34.3
		 M41.8,39.8c0.6-0.5,1.6-0.5,2.2,0.2c0.2,0.2,0.3,0.4,0.4,0.8c0,0.8-0.5,1.5-1.3,1.5c-0.1,0-0.2,0-0.3,0
		C41.6,42.1,41,40.6,41.8,39.8 M33.5,39c0.4-0.8,1.3-1.2,2.2-0.9c0.5,0.3,1,0.8,1.1,1.5c0.1,0.9-0.5,1.6-1.4,1.8
		c-0.1,0-0.1,0.1-0.2,0c-0.4,0.1-0.9-0.1-1.3-0.4C33.3,40.5,33.1,39.7,33.5,39 M18.8,34.9c1-0.2,1.8,1.1,1.2,1.8
		c-0.4,0.6-1.3,0.6-1.8,0.2c-0.1,0-0.2-0.2-0.2-0.3c-0.3-0.5-0.2-1.2,0.3-1.6C18.5,35,18.6,34.9,18.8,34.9 M49.5,46.1
		c0.6-0.2,1.3,0.2,1.5,0.8c0.2,0.6-0.2,1.3-0.8,1.5c-0.5,0.1-0.9,0-1.3-0.4c-0.5-0.5-0.4-1.1,0-1.6C49.2,46.2,49.3,46.1,49.5,46.1
		 M36.6,43.1c1.4,0.1,2.4,0.9,2.8,2.2c0.3,1.4-0.5,2.9-2.1,3.3c-0.1,0-0.1,0.1-0.2,0c-1.7,0.2-3.2-0.8-3.4-2.5c0-0.1,0-0.2,0-0.2
		c0-1.5,1.2-2.8,2.7-2.7C36.5,43.1,36.6,43.1,36.6,43.1 M29.8,40.8c1.5-0.1,2.9,1,3.3,2.5c0.2,1.5-0.8,2.8-2.3,3.1
		c0,0-0.1,0.1-0.2,0c-1.6,0.2-3.1-0.9-3.3-2.5c-0.2-1.5,0.8-2.9,2.4-3.1C29.7,40.7,29.8,40.8,29.8,40.8 M22.1,40.4
		c0.5-0.7,1.3-1,2.2-0.7c0.8,0.4,1.2,1.3,1,2.2c-0.4,0.8-1.3,1.3-2.2,1c-0.9-0.2-1.4-1.1-1.2-2C22,40.7,22,40.6,22.1,40.4
		 M42.6,46.6c0.9-0.2,1.8,0.4,2,1.4s-0.4,1.8-1.4,2c-0.7,0.1-1.3-0.2-1.7-0.7c-0.6-0.6-0.5-1.7,0.2-2.3C42,46.8,42.3,46.6,42.6,46.6
		 M25.1,44.9c1.3,0.2,2.4,1.1,2.7,2.4c0.2,1.4-0.5,2.6-1.9,3c-1.6,0.5-3.3-0.3-3.9-1.9c-0.1-0.1-0.1-0.4-0.1-0.5
		c-0.2-1.6,0.9-2.9,2.5-3C24.7,44.9,25,44.9,25.1,44.9 M38.1,49.7c1.4,0.1,2.4,1,2.7,2.3c0.3,1.4-0.5,2.9-1.9,3.2c0,0-0.1,0-0.1,0.1
		c-1.6,0.4-3.3-0.7-3.6-2.4c-0.2-1.5,0.7-2.9,2.2-3.1C37.5,49.6,37.8,49.6,38.1,49.7 M16.9,43.3c1.2,0,1.9,1.4,1.2,2.3
		c-0.6,0.6-1.5,0.7-2.2,0.1c-0.1-0.1-0.2-0.2-0.3-0.3c-0.4-0.7-0.1-1.5,0.5-1.9C16.3,43.5,16.7,43.4,16.9,43.3 M44.4,54.9
		c0.3-0.8,1.2-1.3,2.1-1.1c0.8,0.3,1.1,1.1,0.8,1.9c-0.3,0.8-1.2,1.2-1.9,0.8c-0.2-0.1-0.3-0.2-0.5-0.4
		C44.5,55.8,44.3,55.4,44.4,54.9 M11.8,42c0.5,0,1,0.5,1,1c0.1,0.1,0,0.3,0,0.4c-0.3,0.4-0.9,0.6-1.3,0.4c-0.2-0.1-0.3-0.3-0.5-0.5
		c-0.1-0.5,0.1-0.9,0.5-1.2C11.5,42,11.6,42.1,11.8,42z M50.8,56.2c0.6-0.1,1.1,0.3,1.1,0.7c0,0,0,0.1,0.1,0.1c0,0.5-0.4,0.9-0.9,1
		c-0.5,0-0.9-0.4-1-0.9C50.1,56.7,50.4,56.4,50.8,56.2 M26.5,51.4c1.6,0.2,2.7,1.6,2.6,3.2c-0.1,0.2,0,0.3-0.1,0.5
		c-0.5,1.5-2.3,2.2-3.8,1.7c-0.2-0.1-0.4-0.1-0.4-0.3c-1.2-0.7-1.8-2.1-1.3-3.5C24,51.9,25.2,51.2,26.5,51.4 M33,53.8
		c1.6,0,2.8,1.4,2.6,3c0,1.6-1.4,2.8-3,2.6c-0.5-0.1-0.9-0.1-1.3-0.4c-1.3-0.7-1.9-2.4-1.2-3.7c0-0.1,0.1-0.2,0.2-0.2
		C30.9,54.1,31.9,53.6,33,53.8 M20.2,50.2c0.9,0.1,1.6,1,1.4,1.9c0,0.3-0.2,0.6-0.3,0.8c-0.7,0.7-1.9,0.7-2.6,0
		c-0.2-0.2-0.3-0.3-0.4-0.6c-0.3-0.9,0.1-1.8,1-2.1C19.5,50.2,19.8,50.2,20.2,50.2 M39,57.1c0.9,0,1.8,0.7,1.7,1.7
		c0,0.2,0,0.4-0.1,0.6c-0.4,0.9-1.4,1.3-2.3,0.9c-0.3-0.1-0.4-0.3-0.6-0.6c-0.6-0.7-0.4-1.8,0.2-2.3C38.4,57.2,38.7,57.1,39,57.1
		 M42.6,64.1c0-0.6,0.4-1.2,1.1-1.2c0.2,0,0.4,0,0.6,0.1c0.3,0.2,0.6,0.5,0.7,0.9c0,0.4-0.2,1-0.6,1.2c-0.6,0.3-1.4,0-1.7-0.6
		C42.6,64.3,42.5,64.2,42.6,64.1 M12.7,51.7c0.7-0.1,1.3,0.4,1.5,1c0,0.2,0,0.5-0.1,0.7c-0.3,0.6-1.1,0.8-1.8,0.4
		c-0.1,0-0.2-0.2-0.3-0.3c-0.4-0.5-0.3-1.2,0.2-1.6C12.3,51.8,12.5,51.7,12.7,51.7 M27.4,58.9c1-0.1,1.8,0.7,1.8,1.6
		c0,0.2,0,0.4-0.1,0.6c-0.4,0.9-1.4,1.3-2.3,0.9c-0.3-0.1-0.5-0.3-0.6-0.6c-0.6-0.6-0.5-1.7,0.2-2.3C26.6,59,27,58.8,27.4,58.9
		 M19.7,57.8c0.8,0,1.5,0.5,1.5,1.3c0,0.2,0,0.4-0.1,0.6c-0.3,0.8-1.1,1.1-1.9,0.8l-0.1,0c-0.5-0.3-1-0.9-0.9-1.6
		C18.6,58.3,19.1,57.9,19.7,57.8 M34.1,63c0.8-0.1,1.6,0.4,1.7,1.2c0.1,0.8-0.4,1.6-1.2,1.7c-0.6,0.1-1.2-0.1-1.6-0.7
		c-0.4-0.6-0.3-1.5,0.4-1.9C33.6,63.2,33.9,63,34.1,63 M34.5,69.8c-0.1-0.6,0.3-1.1,0.7-1.1c0.1-0.1,0.3,0,0.4,0
		c0.5,0.3,0.9,0.8,0.6,1.4c-0.3,0.4-0.9,0.6-1.3,0.4C34.7,70.2,34.5,70.1,34.5,69.8 M14.9,62.1c0.3-0.4,0.9-0.6,1.4-0.3
		c0.4,0.3,0.6,0.7,0.4,1.2c-0.1,0.3-0.4,0.4-0.6,0.4c-0.6,0.1-1.1-0.3-1.2-0.9C14.8,62.4,14.8,62.2,14.9,62.1 M24.3,66
		c0.4-0.5,1.2-0.6,1.8-0.2c0.1,0,0.1,0.1,0.2,0.2c0.3,0.3,0.4,0.8,0.3,1.2c-0.2,0.2-0.2,0.3-0.4,0.5c-0.3,0.2-0.7,0.3-1.1,0.2
		c-0.6-0.1-1-0.8-0.9-1.4C24.1,66.3,24.1,66.2,24.3,66"/>
</g>
<g>
	<path class="st2" d="M77.9,25.3c13.7,5.2,20.6,20.4,15.4,34s-20.4,20.6-34,15.4c-13.7-5.2-20.6-20.4-15.4-34l0,0
		C49.1,27,64.3,20.1,77.9,25.3"/>
	<path class="st1" d="M72.9,47.8l1.3-3.7l8.4,3.2l2.1-5.6l-22.9-8.7l-2.1,5.6l8.4,3.2l-1.3,3.7c-7-2.2-12.6-2.9-13.2-1.2
		c-0.6,1.6,4.1,4.9,10.8,7.9L60,64l6.1,2.3l4.4-11.8c7,2.2,12.6,2.9,13.2,1.2S79.6,50.7,72.9,47.8 M70.8,53.5L70.8,53.5
		c-0.2-0.1-1.1-0.3-3-1.1c-1.6-0.6-2.7-1.1-3.1-1.2l0,0c-5.9-2.6-10-5.2-9.5-6.6S60.7,44,66.7,46l-1.6,4.2c0.4,0.1,1.5,0.6,3.1,1.2
		c1.9,0.7,2.8,1,3,1l1.5-4.1c5.9,2.6,10,5.2,9.5,6.6C81.7,56.1,76.8,55.4,70.8,53.5"/>
</g>
</svg>
