<?xml version="1.0" encoding="utf-8"?>
<!-- Generator: Adobe Illustrator 26.0.1, SVG Export Plug-In . SVG Version: 6.00 Build 0)  -->
<svg version="1.1" id="Layer_1" xmlns="http://www.w3.org/2000/svg" xmlns:xlink="http://www.w3.org/1999/xlink" x="0px" y="0px"
	 viewBox="0 0 100 100" style="enable-background:new 0 0 100 100;" xml:space="preserve">
<style type="text/css">
	.st0{fill:#F7941F;}
	.st1{fill:#FFFFFF;}
	.st2{fill:#53AE94;}
</style>
<g>
	<path class="st0" d="M40.7,25.3c13.7,5.2,20.6,20.4,15.4,34s-20.4,20.6-34,15.4C8.4,69.5,1.5,54.3,6.7,40.7l0,0
		C11.9,27,27.1,20.1,40.7,25.3"/>
	<path class="st1" d="M44.7,51.2c1.7-3.2-0.2-5.9-3.3-8.4l2.8-4.2l-2.6-1.7L38.8,41c-0.7-0.5-1.4-0.9-2.1-1.4l2.8-4.1L37,33.8
		L34.3,38c-0.5-0.4-1.1-0.7-1.6-1.1l0,0l-3.5-2.3l-1.8,2.7l1.9,1.2c0.8,0.4,1.1,1.4,0.7,2.1l-3.1,4.8L22.3,52
		c-0.4,0.5-1.1,0.6-1.6,0.2l0,0L18.8,51l-2.6,2.7l3.3,2.3l1.8,1.2l-2.8,4.3l2.6,1.7l2.8-4.2c0.7,0.5,1.4,0.9,2.1,1.4l-2.8,4.2
		l2.6,1.7l2.8-4.2c4.5,2.7,8.2,3.6,11.2-0.2c2.5-3,1.9-5.5-0.1-7.7C41.7,54.4,43.8,53.3,44.7,51.2L44.7,51.2z M35,57.9
		c-2.1,3.2-7.3-0.8-9.1-2l3.8-5.7C31.5,51.4,37.3,54.6,35,57.9L35,57.9z M39.1,49.2c-1.9,2.9-6.2-0.5-7.6-1.5l3.4-5
		C36.4,43.6,41.2,46.2,39.1,49.2z"/>
</g>
<g>
	<path class="st2" d="M77.9,25.3c13.7,5.2,20.6,20.4,15.4,34s-20.4,20.6-34,15.4c-13.7-5.2-20.6-20.4-15.4-34l0,0
		C49.1,27,64.3,20.1,77.9,25.3"/>
	<path class="st1" d="M72.9,47.8l1.3-3.7l8.4,3.2l2.1-5.6l-22.9-8.7l-2.1,5.6l8.4,3.2l-1.3,3.7c-7-2.2-12.6-2.9-13.2-1.2
		c-0.6,1.6,4.1,4.9,10.8,7.9L60,64l6.1,2.3l4.4-11.8c7,2.2,12.6,2.9,13.2,1.2S79.6,50.7,72.9,47.8 M70.8,53.5L70.8,53.5
		c-0.2-0.1-1.1-0.3-3-1.1c-1.6-0.6-2.7-1.1-3.1-1.2l0,0c-5.9-2.6-10-5.2-9.5-6.6S60.7,44,66.7,46l-1.6,4.2c0.4,0.1,1.5,0.6,3.1,1.2
		c1.9,0.7,2.8,1,3,1l1.5-4.1c5.9,2.6,10,5.2,9.5,6.6C81.7,56.1,76.8,55.4,70.8,53.5"/>
</g>
</svg>
