<?xml version="1.0" encoding="utf-8"?>
<!-- Generator: Adobe Illustrator 26.0.1, SVG Export Plug-In . SVG Version: 6.00 Build 0)  -->
<svg version="1.1" id="Layer_1" xmlns="http://www.w3.org/2000/svg" xmlns:xlink="http://www.w3.org/1999/xlink" x="0px" y="0px"
	 viewBox="0 0 100 100" style="enable-background:new 0 0 100 100;" xml:space="preserve">
<style type="text/css">
	.st0{fill:#53AE94;}
	.st1{fill:#FFFFFF;}
	.st2{fill:#F7941F;}
</style>
<g>
	<path class="st0" d="M68.9,23.6C83.5,23.8,95.2,35.7,95,50.3S82.9,76.6,68.3,76.4C53.7,76.2,42,64.3,42.2,49.7l0,0
		C42.4,35.1,54.3,23.4,68.9,23.6"/>
	<path class="st1" d="M71.9,46.5v-3.9l9,0.1l0.1-6l-24.5-0.3l-0.1,6l9,0.1v3.9c-7.3,0.3-12.8,1.6-12.8,3.4c0,1.7,5.5,3.2,12.8,3.7
		l-0.1,12.6l6.5,0.1l0.1-12.6c7.3-0.3,12.8-1.6,12.8-3.4S79.2,46.9,71.9,46.5 M71.9,52.5L71.9,52.5c-0.2,0-1.1,0.1-3.2,0
		c-1.7,0-2.9-0.1-3.3-0.1l0,0C59,52,54.2,50.9,54.2,49.5s4.9-2.4,11.3-2.6l-0.1,4.5c0.4,0,1.6,0.1,3.3,0.1c2,0,3,0,3.2-0.1V47
		c6.4,0.4,11.2,1.5,11.2,2.9C83,51.3,78.2,52.3,71.9,52.5"/>
</g>
<g>
	<path class="st2" d="M25.6,24.3c14.2-3.2,28.4,5.7,31.6,19.9s-5.7,28.4-19.9,31.6C23,78.9,8.8,70.1,5.7,55.8l0,0
		C2.5,41.6,11.3,27.4,25.6,24.3"/>
	<path class="st1" d="M43.2,43.7c-0.3-3.6-3.4-4.8-7.4-5.2l0-5l-3.1,0l-0.1,4.9c-0.8,0-1.6,0-2.5,0l0.1-4.9l-3.1,0l0,4.9
		c-0.6-0.1-1.3,0-2,0l0,0l-4.2,0l0,3.3l2.3,0c0.9-0.1,1.7,0.5,1.8,1.3l0,5.7l-0.1,8.1c-0.1,0.6-0.6,1.1-1.2,1l0,0l-2.3,0l-0.7,3.7
		l4,0.1l2.2,0l0,5.1l3.1,0l0-5c0.8,0,1.6,0,2.5,0l0,5l3.1,0l0-5c5.2-0.2,8.8-1.5,9.3-6.3c0.4-3.9-1.4-5.6-4.3-6.4
		C42.4,48,43.6,45.9,43.2,43.7L43.2,43.7z M38.8,54.6c0,3.8-6.5,3.3-8.7,3.3l0-6.8C32.3,51.1,38.8,50.6,38.8,54.6L38.8,54.6z
		 M37.4,45.1c0,3.5-5.4,3-7.2,3l0.1-6.1C32,41.9,37.5,41.5,37.4,45.1z"/>
</g>
</svg>
