<?xml version="1.0" encoding="utf-8"?>
<!-- Generator: Adobe Illustrator 26.0.1, SVG Export Plug-In . SVG Version: 6.00 Build 0)  -->
<svg version="1.1" id="Layer_1" xmlns="http://www.w3.org/2000/svg" xmlns:xlink="http://www.w3.org/1999/xlink" x="0px" y="0px"
	 viewBox="0 0 100 100" style="enable-background:new 0 0 100 100;" xml:space="preserve">
<style type="text/css">
	.st0{fill:#6779BB;}
	.st1{fill:#FFFFFF;fill-opacity:0.6;}
	.st2{fill:#FFFFFF;}
	.st3{fill:#FFFFFF;fill-opacity:0.2;}
	.st4{fill:#53AE94;}
</style>
<g>
	<path class="st0" d="M40.7,25.3c13.7,5.2,20.6,20.4,15.4,34s-20.4,20.6-34,15.4C8.4,69.5,1.5,54.3,6.7,40.7l0,0
		C11.9,27,27.1,20.1,40.7,25.3"/>
	<g>
		<path class="st1" d="M38.3,30.9L33.2,45l10,9.7L38.3,30.9z"/>
		<path class="st2" d="M38.3,30.9L19.3,46l13.9-1C33.2,45,38.3,30.9,38.3,30.9z"/>
		<path class="st1" d="M27.9,59.5l-3.5,9.6l18-12.2L27.9,59.5z"/>
		<path class="st2" d="M24.5,69.1l3.5-9.6l-9.4-11.3L24.5,69.1z"/>
		<path class="st3" d="M28.7,57.3l14.5-2.6l-10-9.7C33.2,45,28.7,57.3,28.7,57.3z"/>
		<path class="st1" d="M19.3,46l9.4,11.3l4.4-12.2L19.3,46z"/>
	</g>
</g>
<g>
	<path class="st4" d="M77.9,25.3c13.7,5.2,20.6,20.4,15.4,34s-20.4,20.6-34,15.4c-13.7-5.2-20.6-20.4-15.4-34l0,0
		C49.1,27,64.3,20.1,77.9,25.3"/>
	<path class="st2" d="M72.9,47.8l1.3-3.7l8.4,3.2l2.1-5.6l-22.9-8.7l-2.1,5.6l8.4,3.2l-1.3,3.7c-7-2.2-12.6-2.9-13.2-1.2
		c-0.6,1.6,4.1,4.9,10.8,7.9L60,64l6.1,2.3l4.4-11.8c7,2.2,12.6,2.9,13.2,1.2S79.6,50.7,72.9,47.8 M70.8,53.5L70.8,53.5
		c-0.2-0.1-1.1-0.3-3-1.1c-1.6-0.6-2.7-1.1-3.1-1.2l0,0c-5.9-2.6-10-5.2-9.5-6.6S60.7,44,66.7,46l-1.6,4.2c0.4,0.1,1.5,0.6,3.1,1.2
		c1.9,0.7,2.8,1,3,1l1.5-4.1c5.9,2.6,10,5.2,9.5,6.6C81.7,56.1,76.8,55.4,70.8,53.5"/>
</g>
</svg>
