<?xml version="1.0" encoding="utf-8"?>
<!-- Generator: Adobe Illustrator 26.0.1, SVG Export Plug-In . SVG Version: 6.00 Build 0)  -->
<svg version="1.1" id="Layer_1" xmlns="http://www.w3.org/2000/svg" xmlns:xlink="http://www.w3.org/1999/xlink" x="0px" y="0px"
	 viewBox="0 0 100 100" style="enable-background:new 0 0 100 100;" xml:space="preserve">
<style type="text/css">
	.st0{fill:#4562AD;}
	.st1{fill:#FFFFFF;}
	.st2{fill:#53AE94;}
</style>
<g>
	<g>
		<path class="st0" d="M48.5,57.6l-3,8.3c-0.4,1-0.8,2.2-1.2,3.2c-0.1,0.7-0.7,1.1-1.4,1.3c-2.1,0.4-4,0.9-6.1,1.3l-6,1.3l-4.4,1
			c-2,0.5-3.9,0.9-6,1.2c-0.4,0.1-0.6,0.1-0.9,0.1c-0.3,0-0.7-0.2-0.9-0.5c-0.9-1.2-1.8-2.4-2.8-3.5c-0.7-0.9-1.5-1.8-2.3-2.8
			l-2.8-3.5l-2.6-3.1l-3.2-3.9L3.9,56c-0.4-0.5-0.4-1.1-0.2-1.7c0.3-0.9,0.6-1.7,1-2.6c1.2-3.4,2.5-6.8,3.6-10.1
			c0.9-2.3,1.7-4.6,2.5-7c0.4-1.2,0.9-2.4,1.3-3.6c0.2-0.6,0.7-0.9,1.2-1l4.1-0.8l3.5-0.8l4.5-0.9c1.5-0.3,3-0.6,4.5-0.9l4-0.9
			c0.8-0.1,1.6-0.4,2.4-0.5c0.7-0.2,1.4,0.1,1.8,0.6c1.1,1.4,2.2,2.8,3.3,4.2l3.2,3.9c0.8,1,1.6,2.1,2.5,3.1l2.9,3.6l2.6,3.2
			c0.1,0.1,0.2,0.3,0.3,0.4c0.4,0.5,0.5,1,0.2,1.6l-2.1,5.8C49.9,53.6,49.3,55.6,48.5,57.6L48.5,57.6z M40,54.5L40,54.5l2.3-6.3
			c0.1-0.2,0.2-0.5,0.1-0.7c0-0.5-0.2-1-0.6-1.4L39,42.5l-2.6-3.2c-0.7-0.9-1.5-1.8-2.2-2.7c-0.4-0.6-1.2-0.9-1.9-0.7l-1.8,0.4
			c-1.5,0.3-3.1,0.6-4.6,0.9L20,38.5c-0.6,0.1-1.2,0.5-1.3,1.1c-0.5,1.5-1.1,3.1-1.7,4.7c-1,2.7-2,5.5-3,8.2c-0.2,0.5-0.1,1,0.2,1.5
			c0.6,0.7,1.1,1.5,1.7,2.1c0.9,1.2,1.7,2.2,2.7,3.4c1.3,1.5,2.6,3.2,3.8,4.7c0.3,0.4,0.8,0.6,1.3,0.5c1.4-0.2,2.6-0.5,4-0.8
			l3.4-0.7c1.7-0.3,3.3-0.7,5.1-1c0.7-0.1,1.2-0.5,1.4-1.2C38.5,58.7,39.4,56.6,40,54.5z"/>
		<path class="st1" d="M40,54.5c-0.8,2.1-1.5,4.2-2.3,6.3c-0.2,0.7-0.7,1.1-1.4,1.2c-1.7,0.3-3.3,0.7-5.1,1l-3.4,0.7
			c-1.4,0.2-2.6,0.5-4,0.8c-0.5,0.1-1-0.1-1.3-0.5c-1.3-1.5-2.6-3.2-3.8-4.7c-0.9-1.1-1.7-2.2-2.7-3.4c-0.6-0.7-1.1-1.5-1.7-2.1
			c-0.4-0.5-0.4-1.1-0.2-1.6c1-2.7,2-5.5,3-8.2c0.6-1.6,1.1-3.1,1.7-4.7c0.2-0.6,0.7-1,1.3-1.1l5.9-1.3c1.5-0.3,3.1-0.6,4.6-0.9
			l1.8-0.4c0.7-0.2,1.5,0.1,1.9,0.7c0.7,0.9,1.5,1.8,2.2,2.7l2.5,3.3l2.9,3.6c0.4,0.4,0.5,0.8,0.6,1.4c0,0.2-0.1,0.5-0.1,0.7
			L40,54.5L40,54.5z"/>
	</g>
	<g>
		<path class="st2" d="M79.3,25.3c13.7,5.2,20.6,20.4,15.4,34s-20.4,20.6-34,15.4c-13.7-5.2-20.6-20.4-15.4-34l0,0
			C50.5,27,65.7,20.1,79.3,25.3"/>
		<path class="st1" d="M74.3,47.8l1.3-3.7l8.4,3.2l2.1-5.6l-22.9-8.7l-2.1,5.6l8.4,3.2l-1.3,3.7c-7-2.2-12.6-2.9-13.2-1.2
			c-0.6,1.6,4.1,4.9,10.8,7.9L61.4,64l6.1,2.3l4.4-11.8c7,2.2,12.6,2.9,13.2,1.2C85.7,54,81,50.7,74.3,47.8 M72.2,53.5L72.2,53.5
			c-0.2-0.1-1.1-0.3-3-1.1c-1.6-0.6-2.7-1.1-3.1-1.2l0,0c-5.9-2.6-10-5.2-9.5-6.6S62.1,44,68.1,46l-1.6,4.2c0.4,0.1,1.5,0.6,3.1,1.2
			c1.9,0.7,2.8,1,3,1l1.5-4.1c5.9,2.6,10,5.2,9.5,6.6C83.1,56.1,78.2,55.4,72.2,53.5"/>
	</g>
</g>
</svg>
