<?xml version="1.0" encoding="utf-8"?>
<!-- Generator: Adobe Illustrator 26.0.1, SVG Export Plug-In . SVG Version: 6.00 Build 0)  -->
<svg version="1.1" id="Layer_1" xmlns="http://www.w3.org/2000/svg" xmlns:xlink="http://www.w3.org/1999/xlink" x="0px" y="0px"
	 viewBox="0 0 100 100" style="enable-background:new 0 0 100 100;" xml:space="preserve">
<style type="text/css">
	.st0{fill:#12AAE2;}
	.st1{fill:#FEFFFF;}
	.st2{fill:#53AE94;}
	.st3{fill:#FFFFFF;}
</style>
<g>
	<path class="st0" d="M40.7,25.3c13.7,5.2,20.6,20.4,15.4,34s-20.4,20.6-34,15.4C8.4,69.5,1.5,54.3,6.7,40.7l0,0
		C11.9,27,27.1,20.1,40.7,25.3"/>
	<path class="st1" d="M15.3,44.3c0.3-0.9,0.8-1.7,1.5-2.4c1.5-1.8,3.8-2.6,6.1-2.2c0.9,0.1,1.8,0.6,2.6,1.1c1.4,0.9,2.3,2.3,2.7,4
		c0.1,0.3,0.1,0.6,0.2,0.9c0.2,1,0.9,1.8,2,2.2c0.9,0.2,1.9,0,2.6-0.7c0.7-0.7,0.9-1.7,0.8-2.6c-0.1-0.8-0.2-1.6-0.1-2.4
		c0.2-1.4,0.7-2.7,1.6-3.8c1.4-1.9,3.8-2.9,6.1-2.6c1.5,0.1,2.9,1,4,2.1c1.6,1.8,2.2,4.2,1.6,6.5c-0.1,0.6-0.3,1.2-0.6,1.7
		c-0.9,2-2.9,3.4-5.2,3.7c-0.9,0.1-1.8,0.1-2.6-0.2c-0.4-0.1-0.8-0.2-1.2-0.3c-1-0.2-2.1,0.3-2.8,1.1c-1,1.2-0.7,3,0.6,3.9
		c0.1,0,0.2,0.2,0.3,0.2c0.6,0.3,1.3,0.7,2,1c1.8,1.1,3,3,3.1,5.3c0.1,1,0,2-0.3,3c-0.7,1.9-2.1,3.5-4,4.2c-1.6,0.7-3.4,0.7-5,0
		c-0.7-0.2-1.2-0.7-1.7-1.1c-1.7-1.4-2.7-3.5-2.5-5.8c0.1-1.9,1-3.6,2.4-4.9c0.2-0.2,0.3-0.3,0.5-0.5c0.7-0.8,1-1.9,0.7-3
		c-0.4-1.3-1.7-2.1-3-1.7c-0.1,0.1-0.3,0.1-0.5,0.1c-0.5,0.2-1.1,0.6-1.5,0.9c-1.2,0.9-2.8,1.4-4.2,1.4c-3.7-0.1-6.7-3.3-6.5-6.9
		c0-0.1,0-0.1,0-0.2C15,45.7,15.1,45,15.3,44.3z"/>
</g>
<g>
	<path class="st2" d="M77.9,25.3c13.7,5.2,20.6,20.4,15.4,34s-20.4,20.6-34,15.4c-13.7-5.2-20.6-20.4-15.4-34l0,0
		C49.1,27,64.3,20.1,77.9,25.3"/>
	<path class="st3" d="M72.9,47.8l1.3-3.7l8.4,3.2l2.1-5.6l-22.9-8.7l-2.1,5.6l8.4,3.2l-1.3,3.7c-7-2.2-12.6-2.9-13.2-1.2
		c-0.6,1.6,4.1,4.9,10.8,7.9L60,64l6.1,2.3l4.4-11.8c7,2.2,12.6,2.9,13.2,1.2S79.6,50.7,72.9,47.8 M70.8,53.5L70.8,53.5
		c-0.2-0.1-1.1-0.3-3-1.1c-1.6-0.6-2.7-1.1-3.1-1.2l0,0c-5.9-2.6-10-5.2-9.5-6.6S60.7,44,66.7,46l-1.6,4.2c0.4,0.1,1.5,0.6,3.1,1.2
		c1.9,0.7,2.8,1,3,1l1.5-4.1c5.9,2.6,10,5.2,9.5,6.6C81.7,56.1,76.8,55.4,70.8,53.5"/>
</g>
</svg>
