<?xml version="1.0" encoding="utf-8"?>
<!-- Generator: Adobe Illustrator 24.0.2, SVG Export Plug-In . SVG Version: 6.00 Build 0)  -->
<svg version="1.1" id="Layer_1" xmlns="http://www.w3.org/2000/svg" xmlns:xlink="http://www.w3.org/1999/xlink" x="0px" y="0px"
	 viewBox="0 0 432 432" style="enable-background:new 0 0 432 432;" xml:space="preserve">
<style type="text/css">
	.st0{fill:#FF8719;}
	.st1{fill:#91562F;}
	.st2{fill:#054AB3;}
	.st3{fill:#F9B44D;}
	.st4{fill:#F0E4D6;}
	.st5{opacity:0.5;}
	.st6{fill:#FFFFFF;}
	.st7{opacity:0.3;}
	.st8{fill:#E6E9ED;}
	.st9{opacity:0.7;}
	.st10{fill:#FF8719;stroke:#000000;stroke-width:6;stroke-miterlimit:10;}
	.st11{fill:#054AB3;stroke:#000000;stroke-width:6;stroke-miterlimit:10;}
	.st12{fill:#FF8719;stroke:#000000;stroke-width:7;stroke-miterlimit:10;}
</style>
<path class="st0" d="M330.79,189.76c-12.12-23.74-22.59-44.24-22.59-61.03c0-19.18,4.62-37.74,13.77-55.17
	c2.92-5.56,6.25-10.91,9.98-16.05c-2.88,1.69-5.61,3.63-8.17,5.82c-10.21,8.77-17.94,21.75-22.35,37.55
	c-4.48,16-0.97,41.28,2.76,68.04c3.93,28.34,8.02,57.64,4.08,83.49c-4.8,31.59-21.42,52.43-49.38,61.95l-14.49,4.94v-50.84h-56.76
	v51.16l-14.69-5.3c-30.03-10.85-47.55-31.53-52.06-61.49c-3.72-24.75,1.54-51.86,6.63-78.08c4.71-24.32,9.18-47.28,4.7-61.78
	c-5.44-17.57-14.12-33.36-24.45-44.48c-0.45-0.48-0.89-0.93-1.34-1.38c1.27,2.12,2.49,4.27,3.62,6.45
	c9.15,17.43,13.77,35.99,13.77,55.17c0,13.01-8.8,30.29-19.96,52.17c-13.57,26.64-30.45,59.78-30.45,86.62
	c0,63.68,63.95,115.49,142.58,115.49s142.6-51.81,142.6-115.49C358.59,244.19,343.82,215.27,330.79,189.76z M330.79,189.76
	c-12.12-23.74-22.59-44.24-22.59-61.03c0-19.18,4.62-37.74,13.77-55.17c2.92-5.56,6.25-10.91,9.98-16.05
	c-2.88,1.69-5.61,3.63-8.17,5.82c-10.21,8.77-17.94,21.75-22.35,37.55c-4.48,16-0.97,41.28,2.76,68.04
	c3.93,28.34,8.02,57.64,4.08,83.49c-4.8,31.59-21.42,52.43-49.38,61.95l-14.49,4.94v-50.84h-56.76v51.16l-14.69-5.3
	c-30.03-10.85-47.55-31.53-52.06-61.49c-3.72-24.75,1.54-51.86,6.63-78.08c4.71-24.32,9.18-47.28,4.7-61.78
	c-5.44-17.57-14.12-33.36-24.45-44.48c-0.45-0.48-0.89-0.93-1.34-1.38c1.27,2.12,2.49,4.27,3.62,6.45
	c9.15,17.43,13.77,35.99,13.77,55.17c0,13.01-8.8,30.29-19.96,52.17c-13.57,26.64-30.45,59.78-30.45,86.62
	c0,63.68,63.95,115.49,142.58,115.49s142.6-51.81,142.6-115.49C358.59,244.19,343.82,215.27,330.79,189.76z"/>
<path class="st2" d="M216,338.76c-5.73,0-11.23,5.04-10.96,10.96c0.27,5.94,4.82,10.96,10.96,10.96c5.73,0,11.23-5.04,10.96-10.96
	C226.7,343.78,222.15,338.76,216,338.76z"/>
<path class="st2" d="M264.97,331.45c-5.73,0-11.23,5.04-10.96,10.96c0.27,5.94,4.82,10.96,10.96,10.96
	c5.73,0,11.23-5.04,10.96-10.96C275.67,336.47,271.12,331.45,264.97,331.45z"/>
<path class="st2" d="M294.93,319.43c0.27,5.94,4.82,10.96,10.96,10.96c5.73,0,11.23-5.04,10.96-10.96
	c-0.27-5.94-4.81-10.96-10.96-10.96C300.16,308.47,294.67,313.51,294.93,319.43z"/>
<path class="st2" d="M126.1,308.47c-5.73,0-11.23,5.04-10.96,10.96c0.27,5.94,4.82,10.96,10.96,10.96c5.73,0,11.23-5.04,10.96-10.96
	C136.8,313.49,132.25,308.47,126.1,308.47z"/>
<path class="st2" d="M168.15,331.45c-5.73,0-11.23,5.04-10.96,10.96c0.27,5.94,4.82,10.96,10.96,10.96
	c5.73,0,11.23-5.04,10.96-10.96C178.85,336.47,174.3,331.45,168.15,331.45z"/>
<path d="M369.66,48.99h35.28V27.06h-43.05l-0.09,0.07c-32.59,1.21-58.2,17.57-72.97,45.99H138.41c-4.02-6.69-8.84-13.37-14.6-19.56
	C108.69,37.3,90.24,28.23,70.25,27.17l-0.13-0.11H27.06v21.92h35.28c8.68,7.35,16.03,15.46,21.94,24.14H72.65v21.93h23.08
	c4.05,10.78,6.16,22.1,6.16,33.69c0,7.74-8.93,25.27-17.57,42.21c-14.64,28.73-32.86,64.47-32.86,96.58
	c0,37.11,17.39,71.87,48.97,97.88c30.96,25.49,72,39.53,115.55,39.53c43.56,0,84.59-14.04,115.55-39.54
	c31.58-26,48.97-60.76,48.97-97.88c0-28.61-16.05-60.02-30.2-87.73c-9.93-19.44-20.2-39.55-20.2-51.05
	c0-11.59,2.11-22.91,6.16-33.69h25.26V73.12h-13.82C353.63,64.45,360.98,56.34,369.66,48.99z M282.45,171.95
	c3.72,26.78,7.58,54.47,4.13,77.17c-2.6,17.08-9.15,29.22-20.28,37.21l0.25-191.27h13.72C274.6,115.45,278.41,142.89,282.45,171.95z
	 M187.62,246.54V95.05h17.42v151.49H187.62z M226.96,95.05h17.67v151.49h-17.67V95.05z M165.7,95.05v191.58
	c-13.18-8.41-20.64-20.46-23.14-37.06c-3.16-21.01,1.74-46.25,6.47-70.64c5.26-27.09,10.22-52.67,4.12-72.43
	c-1.08-3.49-2.41-7.36-4.01-11.45H165.7z M330.78,189.77c13.03,25.51,27.8,54.43,27.8,77.76c0,63.68-63.97,115.48-142.6,115.48
	s-142.6-51.81-142.6-115.49c0-26.83,16.89-59.98,30.47-86.62c11.15-21.88,19.96-39.16,19.96-52.17c0-19.19-4.64-37.75-13.77-55.17
	c-1.14-2.18-2.36-4.33-3.63-6.45c0.44,0.46,0.89,0.9,1.33,1.38c10.34,11.12,19.02,26.92,24.45,44.48
	c4.48,14.5,0.02,37.46-4.69,61.78c-5.09,26.22-10.35,53.33-6.63,78.08c4.51,29.96,22.02,50.64,52.06,61.49l14.69,5.3v-51.16h56.76
	v50.84l14.5-4.93c27.96-9.52,44.58-30.36,49.38-61.95c3.93-25.85-0.14-55.15-4.09-83.49c-3.72-26.77-7.24-52.05-2.76-68.05
	c4.42-15.8,12.16-28.78,22.36-37.54c2.56-2.2,5.29-4.13,8.16-5.83c-3.73,5.14-7.06,10.49-9.98,16.05
	c-9.14,17.42-13.77,35.99-13.77,55.17C308.18,145.53,318.66,166.03,330.78,189.77z"/>
</svg>
