<?xml version="1.0" encoding="utf-8"?>
<!-- Generator: Adobe Illustrator 24.0.2, SVG Export Plug-In . SVG Version: 6.00 Build 0)  -->
<svg version="1.1" id="Layer_1" xmlns="http://www.w3.org/2000/svg" xmlns:xlink="http://www.w3.org/1999/xlink" x="0px" y="0px"
	 viewBox="0 0 432 432" style="enable-background:new 0 0 432 432;" xml:space="preserve">
<style type="text/css">
	.st0{fill:#FF8719;}
	.st1{fill:#91562F;}
	.st2{fill:#054AB3;}
	.st3{fill:#F9B44D;}
	.st4{fill:#F0E4D6;}
	.st5{opacity:0.5;}
	.st6{fill:#FFFFFF;}
	.st7{opacity:0.3;}
	.st8{fill:#E6E9ED;}
	.st9{opacity:0.7;}
	.st10{fill:#FF8719;stroke:#000000;stroke-width:6;stroke-miterlimit:10;}
	.st11{fill:#054AB3;stroke:#000000;stroke-width:6;stroke-miterlimit:10;}
	.st12{fill:#FF8719;stroke:#000000;stroke-width:7;stroke-miterlimit:10;}
</style>
<path class="st10" d="M206.48,148.05c0.97-12.36,4.08-24.12,8.96-34.91c0.01-0.04,0.03-0.09,0.05-0.13
	c16.51-36.36,53.13-61.66,95.68-61.66c5.55,0,10.98,0.43,16.3,1.26c22.23,3.47,42.16,13.92,57.47,29.02
	c-15.11-19.54-35.49-34.04-60.01-40.55c-9.34-2.48-19.27-3.81-29.76-3.81c-52.97,0-98.64,31.24-119.58,76.33
	c-0.38,0.82-0.75,1.64-1.12,2.47c0,0.01,0,0.01-0.01,0.02c-7.13,16.2-11.08,34.13-11.08,52.97v0.34
	c11.71-8.22,24.53-14.83,37.92-19.62C203.02,149.18,204.75,148.59,206.48,148.05z"/>
<path class="st11" d="M341.42,306.52c2.23-0.12,4.41-0.26,6.52-0.43c2.52-16.42-0.64-33.21-8.95-47.59l-0.42-0.73
	c-8.73,2.36-17.92,3.62-27.39,3.62c-10.57,0-20.76-1.56-30.38-4.46c-14.82-4.47-28.26-12.13-39.51-22.19
	c-6.1-5.45-11.56-11.58-16.26-18.3c-14,5.47-26.87,13.95-37.55,25.11c6.52,9.23,14.18,17.76,22.71,25.39
	c11.34,10.17,24.24,18.77,38.07,25.33c17.9,8.5,37.36,13.61,57.08,14.35C318.84,307.13,330.81,307.08,341.42,306.52z"/>
<path class="st11" d="M161.84,253.27c4.77-9.21,10.71-17.42,17.54-24.53c10.79-11.22,23.79-19.74,37.95-25.18
	c9.11-3.51,18.7-5.75,28.47-6.63c2.29-14.92,1.37-30.35-2.93-45.15c-12.41,1.15-24.75,3.94-36.65,8.19
	c-14.98,5.35-29.24,13-42.03,22.59c-16.14,12.09-29.92,27.25-39.82,44.73c-5.73,10.12-10.58,19.42-14.61,27.98
	c14.11,7.8,29.79,12.21,45.73,13.01C157.19,263.2,159.31,258.18,161.84,253.27z"/>
<path class="st10" d="M365.66,216.17c-11.38-19.98-31.35-39.33-52.66-51.41c5.47,23.52-1.97,48.66-2.19,49.78
	c16.96,8.2,28.55,22.25,36.27,36.29c0,0,0,0,0,0.01c16.33,29.67,18.03,66.67,1.29,98.99c-2.21,4.27-4.67,8.32-7.37,12.15
	c-13.37,19.07-32.32,32.58-53.43,39.44c28.49-5.2,54.15-20,71.93-45.01c3.18-4.45,6.1-9.22,8.74-14.32
	c20.75-40.09,18.92-85.92-0.92-122.92C366.78,218.16,366.23,217.17,365.66,216.17z"/>
<path class="st10" d="M201.19,272.34c-45.61,24.34-103.33,11.86-134.45-31.21C49.9,217.82,44,189.93,48.07,163.6
	c-9.65,32.71-5.63,67.95,16.62,98.74c40.14,55.53,115.49,70.55,173.4,36.55c-11.79-6.14-22.83-13.79-32.69-22.63
	C203.96,274.97,202.56,273.67,201.19,272.34z"/>
<path class="st11" d="M246.59,225.03c9.34,8.11,20.12,14.57,31.91,18.99c2.59,0.98,5.25,1.86,7.94,2.63
	c0.09-0.19,0.19-0.37,0.26-0.56c6.09-12.46,10.29-25.92,12.62-39.8c2.6-15.45,2.88-31.4,0.83-47.04
	c-2.92-22.4-10.62-44.17-23.1-62.9c-1.72-2.58-3.41-5.08-5.09-7.49c-2.67-3.85-5.28-7.5-7.83-10.95c-0.67,0.43-2.85,1.44-5.68,2.7
	c-13.01,5.77-22.85,16.95-26.92,30.59c1.9,2.21,3.72,4.52,5.45,6.91c7.46,10.32,12.77,21.53,16.02,33.1
	c4.18,14.87,4.96,30.35,2.52,45.29C253.91,206.35,250.92,215.96,246.59,225.03z"/>
</svg>
