<?xml version="1.0" encoding="utf-8"?>
<!-- Generator: Adobe Illustrator 24.0.2, SVG Export Plug-In . SVG Version: 6.00 Build 0)  -->
<svg version="1.1" id="Layer_1" xmlns="http://www.w3.org/2000/svg" xmlns:xlink="http://www.w3.org/1999/xlink" x="0px" y="0px"
	 viewBox="0 0 432 432" style="enable-background:new 0 0 432 432;" xml:space="preserve">
<style type="text/css">
	.st0{fill:#FF8719;}
	.st1{fill:#91562F;}
	.st2{fill:#054AB3;}
	.st3{fill:#F9B44D;}
	.st4{fill:#F0E4D6;}
	.st5{opacity:0.5;}
	.st6{fill:#FFFFFF;}
	.st7{opacity:0.3;}
	.st8{fill:#E6E9ED;}
	.st9{opacity:0.7;}
	.st10{fill:#FF8719;stroke:#000000;stroke-width:6;stroke-miterlimit:10;}
	.st11{fill:#054AB3;stroke:#000000;stroke-width:6;stroke-miterlimit:10;}
	.st12{fill:#FF8719;stroke:#000000;stroke-width:7;stroke-miterlimit:10;}
</style>
<path class="st12" d="M324.99,167.63L324.99,167.63l17.44-10.17C304.7,92.63,223.36,67.87,155.9,100.66V75.84h-20.19v60.56h60.56
	v-20.19h-25.79C227.59,92,293.79,114.03,324.99,167.63z"/>
<path class="st12" d="M140.76,324.91c-46.8-38.01-59.12-104.35-29.08-156.63l-17.5-10.09c-34.26,59.66-21.3,135.25,30.89,180.09
	h-24.68v20.19h60.56V297.9h-20.19V324.91z"/>
<path class="st12" d="M352.36,202.7l-42.82,42.83l14.27,14.27l17.16-17.16c-6.73,62.53-59.43,109.99-122.32,110.17v20.19
	c74.94-0.2,137.1-58.03,142.7-132.76l19.56,19.56l14.27-14.27L352.36,202.7z"/>
</svg>
