<?xml version="1.0" encoding="utf-8"?>
<!-- Generator: Adobe Illustrator 24.0.2, SVG Export Plug-In . SVG Version: 6.00 Build 0)  -->
<svg version="1.1" id="Layer_1" xmlns="http://www.w3.org/2000/svg" xmlns:xlink="http://www.w3.org/1999/xlink" x="0px" y="0px"
	 viewBox="0 0 432 432" style="enable-background:new 0 0 432 432;" xml:space="preserve">
<style type="text/css">
	.st0{fill:#FF8719;}
	.st1{fill:#91562F;}
	.st2{fill:#054AB3;}
	.st3{fill:#F9B44D;}
	.st4{fill:#F0E4D6;}
	.st5{opacity:0.5;}
	.st6{fill:#FFFFFF;}
	.st7{opacity:0.3;}
	.st8{fill:#E6E9ED;}
	.st9{opacity:0.7;}
	.st10{fill:#FF8719;stroke:#000000;stroke-width:6;stroke-miterlimit:10;}
	.st11{fill:#054AB3;stroke:#000000;stroke-width:6;stroke-miterlimit:10;}
	.st12{fill:#FF8719;stroke:#000000;stroke-width:7;stroke-miterlimit:10;}
</style>
<g>
	<g>
		<g>
			<path class="st2" d="M49.94,371.1c-7.59,3.57-15.68-1.37-19.18,2.13c-8.22,8.22-8.23,21.61,0,29.84c8.22,8.23,21.61,8.23,29.84,0
				c3.45-3.45-1.45-11.6,2.17-19.22l4.22-4.22L54.2,366.84L49.94,371.1z"/>
		</g>
	</g>
</g>
<g class="st5">
	<g>
		<path class="st6" d="M49.94,371.1c-7.59,3.57-15.68-1.37-19.18,2.13c-8.22,8.22-8.23,21.61,0,29.84c0.73,0.73,1.54,1.32,2.35,1.92
			c-6.17-8.26-6.85-18.73,0.64-26.22c3.5-3.5,12.86,0.17,20.45-3.4L49.94,371.1z"/>
	</g>
</g>
<g>
	<g>
		<path d="M62.73,383.89c-3.57,7.59,1.37,15.68-2.13,19.18c-8.22,8.22-21.61,8.23-29.84,0c-0.73-0.73-1.32-1.54-1.92-2.35
			c8.26,6.17,18.73,6.85,26.22-0.64c3.5-3.5-0.17-12.86,3.4-20.45L62.73,383.89z"/>
	</g>
</g>
<g>
	<g>
		<path class="st2" d="M310.39,102.12L310.39,102.12l-4.22,4.22l21.31,21.32l4.22-4.22l-0.01-0.01c5.93-5.92,5.93-15.47,0.05-21.36
			C325.86,96.19,316.27,96.23,310.39,102.12z"/>
	</g>
</g>
<g class="st7">
	<g>
		<path class="st6" d="M314.65,106.38c5.16-5.16,13.16-5.83,19.01-1.95c-0.55-0.84-1.19-1.62-1.92-2.36
			c-5.89-5.88-15.48-5.84-21.36,0.05v0.01L314.65,106.38L314.65,106.38L314.65,106.38z"/>
	</g>
</g>
<g>
	<g>
		<path d="M327.44,119.18c5.16-5.16,5.83-13.16,1.95-19.02c0.84,0.55,1.62,1.19,2.36,1.92c5.89,5.89,5.84,15.47-0.04,21.36
			l-0.01-0.01L327.44,119.18L327.44,119.18z"/>
	</g>
</g>
<g>
	<g>
		<g>
			<polygon class="st0" points="79.79,375.33 212.35,242.77 191.04,221.46 58.48,354.01 			"/>
		</g>
	</g>
</g>
<g>
	<g>
		<polygon class="st8" points="276.29,50.97 165.46,161.8 144.14,123.44 237.96,29.44 		"/>
	</g>
</g>
<g>
	<g>
		<polygon class="st6" points="276.29,50.97 165.46,161.8 144.14,123.44 237.96,29.44 		"/>
	</g>
</g>
<g>
	<g>
		<path class="st6" d="M284.81,221.48c2.39-2.39,6.18-2.35,8.57-0.05c2.3,2.39,2.34,6.18-0.05,8.57c-2.34,2.34-6.13,2.3-8.48-0.05
			C282.46,227.65,282.47,223.82,284.81,221.48z"/>
	</g>
</g>
<g>
	<g>
		<path class="st6" d="M310.43,195.86c2.34-2.34,6.17-2.35,8.52,0c2.34,2.34,2.34,6.18-0.05,8.57c-2.34,2.34-6.18,2.34-8.48-0.05
			C308.04,202.08,308.04,198.25,310.43,195.86z"/>
	</g>
</g>
<g>
	<g>
		<path class="st6" d="M336.01,170.28c2.34-2.34,6.18-2.34,8.53,0c2.34,2.34,2.34,6.18,0,8.52c-2.35,2.35-6.19,2.35-8.53,0
			C333.66,176.46,333.66,172.63,336.01,170.28z"/>
	</g>
</g>
<g>
	<g>
		<polygon class="st6" points="404.38,195.86 310.39,289.68 272.03,268.37 382.86,157.54 		"/>
	</g>
</g>
<g>
	<g>
		<path class="st6" d="M212.34,140.49c2.39,2.3,2.39,6.13,0,8.52c-2.34,2.34-6.14,2.3-8.48-0.05c-2.39-2.3-2.39-6.13-0.05-8.48
			C206.21,138.1,210,138.14,212.34,140.49z"/>
	</g>
</g>
<g>
	<g>
		<path class="st6" d="M255.02,89.29c2.34-2.34,6.17-2.35,8.52,0c2.34,2.34,2.34,6.18,0,8.52c-2.35,2.35-6.18,2.34-8.52,0
			C252.67,95.47,252.67,91.64,255.02,89.29z"/>
	</g>
</g>
<g>
	<g>
		<path class="st6" d="M229.44,114.87c2.35-2.34,6.18-2.35,8.53,0c2.34,2.34,2.34,6.18-0.05,8.57c-2.34,2.34-6.18,2.34-8.48-0.04
			C227.05,121.09,227.05,117.26,229.44,114.87z"/>
	</g>
</g>
<g>
	<g>
		<polygon class="st0" points="289.12,148.97 284,169.52 268.61,154.13 		"/>
	</g>
</g>
<g>
	<g>
		<polygon class="st0" points="268.61,154.13 284,169.52 280.59,183.07 254.97,157.54 		"/>
	</g>
</g>
<g>
	<g>
		<path class="st0" d="M250.76,187.34c-14.15-14.16-14.15-37-0.05-51.11c14.15-14.16,37-14.16,51.2-0.05
			c14.06,14.15,14.11,37.04,0,51.15C287.76,201.49,264.82,201.49,250.76,187.34z M254.97,157.54l25.62,25.53l3.41-13.56l5.12-20.55
			l-20.51,5.16L254.97,157.54z"/>
	</g>
</g>
<g class="st5">
	<g>
		<g>
			<path class="st6" d="M254.97,140.49c13.43-13.43,34.68-14.09,48.95-2.07c-0.65-0.76-1.3-1.51-2.01-2.24
				c-14.2-14.11-37.05-14.11-51.2,0.05c-14.11,14.11-14.11,36.95,0.05,51.11c0.74,0.74,1.51,1.42,2.29,2.08
				C240.92,175.19,241.56,153.9,254.97,140.49z"/>
		</g>
	</g>
</g>
<g>
	<g>
		<g>
			<path d="M297.75,183.08c-13.43,13.43-34.68,14.09-48.95,2.07c0.64,0.77,1.29,1.52,2.01,2.24c14.2,14.11,37.05,14.11,51.2-0.05
				c14.11-14.11,14.11-36.95-0.05-51.11c-0.74-0.75-1.51-1.42-2.3-2.08C311.79,148.38,311.16,169.67,297.75,183.08z"/>
		</g>
	</g>
</g>
<g>
	<g>
		<path class="st6" d="M237.92,123.44c2.39-2.39,2.39-6.23,0.05-8.57c-2.35-2.35-6.18-2.34-8.53,0c-2.38,2.39-2.39,6.22,0,8.53
			C231.74,125.78,235.58,125.78,237.92,123.44z M318.96,195.86c-2.35-2.35-6.18-2.34-8.52,0c-2.39,2.39-2.4,6.22,0,8.52
			c2.3,2.39,6.13,2.39,8.48,0.05C321.3,202.04,321.3,198.2,318.96,195.86z M263.54,97.82c2.34-2.34,2.34-6.18,0-8.52
			c-2.35-2.35-6.18-2.34-8.52,0c-2.35,2.35-2.35,6.18,0,8.52C257.36,100.16,261.19,100.16,263.54,97.82z M344.54,178.81
			c2.34-2.34,2.34-6.18,0-8.52c-2.35-2.34-6.19-2.34-8.53,0c-2.34,2.35-2.34,6.18,0,8.52C338.35,181.15,342.19,181.15,344.54,178.81
			z M203.87,148.97c2.34,2.34,6.13,2.39,8.48,0.05c2.39-2.39,2.39-6.23,0-8.52c-2.34-2.35-6.14-2.39-8.52,0
			C201.47,142.83,201.47,146.67,203.87,148.97z M293.34,230c2.39-2.39,2.34-6.18,0.05-8.57c-2.4-2.3-6.18-2.34-8.57,0.05
			c-2.34,2.34-2.35,6.17,0.05,8.47C287.2,232.3,290.99,232.35,293.34,230z M250.71,136.23c-14.11,14.11-14.11,36.95,0.05,51.11
			c14.06,14.15,37,14.15,51.15,0c14.11-14.11,14.06-37,0-51.15C287.71,122.07,264.86,122.07,250.71,136.23z M382.86,157.54
			L272.03,268.37l-8.48-34.15l-17.1-17l-4.26,4.26c-2.34,2.34-6.18,2.34-8.52,0l-8.52,8.52l-4.26,4.26l-21.32-21.31l4.26-4.26
			l8.52-8.52c-2.34-2.35-2.34-6.18,0-8.53l4.26-4.26l0.05-0.04l-17.05-17.06l-34.15-8.48L276.29,50.97l0.13-0.05l8.44,34.1
			l63.94,63.94l34.1,8.44L382.86,157.54z"/>
	</g>
</g>
<g>
	<g>
		<polygon class="st2" points="199.56,212.96 220.87,234.26 225.14,238.53 212.34,242.79 191.03,221.48 195.29,208.69 		"/>
	</g>
</g>
<g>
	<g>
		<polygon points="75.56,388.11 45.67,358.31 58.51,354 79.82,375.32 		"/>
	</g>
</g>
<g class="st7">
	<g>
		<polygon class="st6" points="45.67,358.31 49.95,362.57 62.77,358.27 58.51,354 		"/>
	</g>
</g>
<g>
	<g>
		<polygon points="75.51,388.15 71.25,383.88 75.56,371.06 79.82,375.33 		"/>
	</g>
</g>
<g class="st7">
	<g>
		<polygon class="st6" points="195.29,208.69 199.56,212.96 195.25,225.78 190.99,221.52 		"/>
	</g>
</g>
<g>
	<g>
		<polygon points="225.14,238.53 220.87,234.27 208.05,238.57 212.31,242.84 		"/>
	</g>
</g>
<g>
	<g>
		<path d="M225.18,33.92c-2.37-2.37-6.2-2.36-8.57,0l0,0l-68.2,68.2l0.01,0.01c-2.34,2.36-2.34,6.15,0,8.51l-0.01,0.01l4.31,4.31
			l76.73-76.73l-4.18-4.19C225.22,34.01,225.21,33.96,225.18,33.92z"/>
	</g>
</g>
<g>
	<g>
		<path d="M323.17,285.42c2.37,2.37,6.2,2.36,8.57,0l0,0l68.2-68.2l-0.01-0.01c2.34-2.36,2.34-6.16,0-8.51l0.01-0.01l-4.31-4.31
			l-76.73,76.72l4.18,4.19C323.13,285.33,323.14,285.38,323.17,285.42z"/>
	</g>
</g>
<g>
	<g>
		<rect x="305.13" y="241.86" transform="matrix(0.7071 -0.7071 0.7071 0.7071 -67.9003 325.862)" width="108.54" height="6.06"/>
	</g>
</g>
<g>
	<g>
		<polygon points="225.18,33.92 148.43,110.67 152.72,114.97 229.47,38.22 		"/>
	</g>
</g>
<g>
	<g>
		<polygon points="331.7,123.44 327.48,127.66 306.17,106.34 310.39,102.13 		"/>
	</g>
</g>
<g class="st7">
	<g>
		<polygon class="st6" points="191.07,229.96 66.97,354.06 62.7,349.79 186.8,225.69 		"/>
	</g>
</g>
<g>
	<g>
		<polygon points="208.13,247.02 84.03,371.12 79.75,366.85 203.86,242.75 		"/>
	</g>
</g>
<g>
	<g>
		<rect x="55.45" y="366.31" transform="matrix(0.7071 -0.7071 0.7071 0.7071 -248.2959 151.2772)" width="6.03" height="18.09"/>
	</g>
</g>
<g>
	<g>
		<rect x="209.33" y="206.42" transform="matrix(0.7072 -0.707 0.707 0.7072 -94.4252 214.9796)" width="6.03" height="30.14"/>
	</g>
</g>
<g>
	<g>
		<polygon class="st6" points="147.24,129.01 243.63,32.62 238.14,29.54 144.18,123.5 		"/>
	</g>
</g>
<g class="st9">
	<g>
		<polygon class="st6" points="278.07,57.63 276.42,50.93 276.29,50.97 165.46,161.8 172.22,163.48 		"/>
	</g>
</g>
<g>
	<g>
		<polygon points="401.29,190.38 304.91,286.77 310.39,289.84 404.35,195.89 		"/>
	</g>
</g>
<g>
	<g>
		<polygon points="270.46,261.76 272.11,268.46 272.24,268.42 383.07,157.59 376.31,155.91 		"/>
	</g>
</g>
<g>
	<g>
		<rect x="68.28" y="347.47" transform="matrix(0.707 -0.7072 0.7072 0.707 -235.5177 156.6201)" width="5.97" height="30.16"/>
	</g>
</g>
<g>
	<g>
		<rect x="196.59" y="219.17" transform="matrix(0.7071 -0.7071 0.7071 0.7071 -107.1818 209.7282)" width="5.97" height="30.16"/>
	</g>
</g>
<g>
	<g>
		<path d="M84.04,374.11c-0.77,0-1.54-0.29-2.13-0.88c-1.18-1.18-1.18-3.08,0-4.26l12.79-12.79c1.18-1.18,3.08-1.18,4.26,0
			c1.18,1.18,1.18,3.09,0,4.26l-12.79,12.79C85.58,373.82,84.81,374.11,84.04,374.11z"/>
	</g>
</g>
<g>
	<g>
		<path d="M62.73,352.8c-0.77,0-1.54-0.29-2.13-0.88c-1.18-1.18-1.18-3.08,0-4.26l8.52-8.53c1.18-1.18,3.08-1.18,4.26,0
			c1.18,1.18,1.18,3.09,0,4.26l-8.52,8.53C64.27,352.51,63.5,352.8,62.73,352.8z"/>
	</g>
</g>
<g>
	<g>
		<path d="M212.34,245.8c-0.77,0-1.54-0.29-2.13-0.88l-21.31-21.31c-1.18-1.18-1.18-3.09,0-4.26c1.18-1.18,3.08-1.18,4.26,0
			l21.31,21.31c1.18,1.18,1.18,3.08,0,4.26C213.88,245.51,213.11,245.8,212.34,245.8z"/>
	</g>
</g>
<g>
	<g>
		<path d="M191.03,224.49c-0.32,0-0.64-0.05-0.95-0.15c-1.58-0.53-2.43-2.24-1.91-3.82l4.26-12.79c0.53-1.58,2.24-2.43,3.82-1.91
			c1.58,0.53,2.43,2.24,1.91,3.82l-4.26,12.79C193.47,223.69,192.29,224.49,191.03,224.49z"/>
	</g>
</g>
<g>
	<g>
		<path d="M212.34,245.8c-1.26,0-2.44-0.8-2.86-2.06c-0.52-1.58,0.33-3.28,1.91-3.81l12.79-4.26c1.59-0.52,3.28,0.33,3.82,1.91
			c0.52,1.58-0.33,3.28-1.91,3.82l-12.79,4.26C212.98,245.76,212.66,245.8,212.34,245.8z"/>
	</g>
</g>
<g>
	<g>
		<path d="M225.14,241.54c-0.77,0-1.54-0.29-2.13-0.88l-29.84-29.83c-1.18-1.18-1.18-3.08,0-4.26c1.18-1.18,3.08-1.18,4.26,0
			l29.84,29.83c1.18,1.18,1.18,3.09,0,4.26C226.68,241.25,225.91,241.54,225.14,241.54z"/>
	</g>
</g>
<g>
	<g>
		<path d="M79.82,378.33c-0.77,0-1.54-0.29-2.13-0.88l-21.31-21.32c-1.18-1.18-1.18-3.08,0-4.26s3.08-1.18,4.26,0l21.31,21.32
			c1.18,1.18,1.18,3.08,0,4.26C81.36,378.04,80.59,378.33,79.82,378.33z"/>
	</g>
</g>
<g>
	<g>
		<path d="M75.56,391.12c-0.32,0-0.64-0.05-0.95-0.15c-1.58-0.53-2.43-2.24-1.91-3.82l4.26-12.79c0.54-1.58,2.25-2.43,3.82-1.91
			c1.58,0.53,2.43,2.24,1.91,3.82l-4.26,12.79C77.99,390.32,76.82,391.12,75.56,391.12z"/>
	</g>
</g>
<g>
	<g>
		<path d="M45.67,361.33c-1.26,0-2.44-0.8-2.86-2.05c-0.53-1.58,0.32-3.29,1.9-3.82l12.83-4.31c1.58-0.55,3.29,0.32,3.82,1.9
			c0.53,1.58-0.32,3.28-1.9,3.82l-12.83,4.31C46.31,361.28,45.99,361.33,45.67,361.33z"/>
	</g>
</g>
<g>
	<g>
		<path d="M75.56,391.12c-0.77,0-1.54-0.29-2.13-0.88l-29.89-29.79c-1.18-1.18-1.18-3.08-0.01-4.26c1.18-1.19,3.1-1.18,4.26-0.01
			l29.89,29.79c1.18,1.18,1.18,3.08,0.01,4.27C77.1,390.83,76.33,391.12,75.56,391.12z"/>
	</g>
</g>
<g>
	<g>
		<path d="M203.82,211.71c-0.77,0-1.54-0.29-2.13-0.88c-1.18-1.18-1.18-3.08,0-4.26l8.52-8.52c1.18-1.18,3.08-1.18,4.26,0
			c1.18,1.18,1.18,3.08,0,4.26l-8.52,8.52C205.36,211.41,204.59,211.71,203.82,211.71z"/>
	</g>
</g>
<g>
	<g>
		<path d="M225.14,233.02c-0.77,0-1.54-0.29-2.13-0.88c-1.18-1.18-1.18-3.09,0-4.26l8.52-8.52c1.18-1.18,3.08-1.18,4.26,0
			c1.18,1.18,1.18,3.09,0,4.26l-8.52,8.52C226.68,232.72,225.91,233.02,225.14,233.02z"/>
	</g>
</g>
<g>
	<g>
		<path d="M212.34,203.18c-0.77,0-1.54-0.29-2.13-0.88c-3.52-3.53-3.52-9.27,0-12.79c1.18-1.18,3.08-1.18,4.26,0
			c1.18,1.17,1.18,3.08,0,4.26c-1.17,1.18-1.17,3.09,0,4.27c1.18,1.18,1.18,3.09,0,4.26C213.88,202.89,213.11,203.18,212.34,203.18z
			"/>
	</g>
</g>
<g>
	<g>
		<path d="M237.92,226.25c-2.31,0-4.63-0.88-6.39-2.64c-1.18-1.18-1.18-3.09,0-4.26c1.18-1.18,3.08-1.18,4.26,0
			c1.18,1.18,3.08,1.18,4.26,0c1.18-1.18,3.08-1.18,4.26,0c1.18,1.18,1.18,3.09,0,4.26C242.56,225.37,240.24,226.25,237.92,226.25z"
			/>
	</g>
</g>
<g>
	<g>
		<path d="M216.6,207.45c-0.77,0-1.54-0.29-2.13-0.88l-4.26-4.26c-1.18-1.18-1.18-3.08,0-4.26c1.18-1.18,3.08-1.18,4.26,0l4.26,4.26
			c1.18,1.18,1.18,3.08,0,4.26C218.15,207.15,217.38,207.45,216.6,207.45z"/>
	</g>
</g>
<g>
	<g>
		<path d="M233.66,224.49c-0.77,0-1.54-0.29-2.13-0.88l-4.26-4.26c-1.18-1.18-1.18-3.08,0-4.26c1.18-1.18,3.08-1.18,4.26,0
			l4.26,4.26c1.18,1.18,1.18,3.09,0,4.26C235.2,224.2,234.43,224.49,233.66,224.49z"/>
	</g>
</g>
<g>
	<g>
		<path d="M242.18,224.49c-0.77,0-1.54-0.29-2.13-0.88c-1.18-1.18-1.18-3.09,0-4.26l4.26-4.26c1.18-1.18,3.08-1.18,4.26,0
			s1.18,3.08,0,4.26l-4.26,4.26C243.73,224.2,242.96,224.49,242.18,224.49z"/>
	</g>
</g>
<g>
	<g>
		<path d="M212.34,194.65c-0.77,0-1.54-0.29-2.13-0.88c-1.18-1.18-1.18-3.08,0-4.26l4.26-4.26c1.18-1.18,3.08-1.18,4.26,0
			c1.18,1.18,1.18,3.08,0,4.26l-4.26,4.26C213.88,194.36,213.11,194.65,212.34,194.65z"/>
	</g>
</g>
<g>
	<g>
		<path d="M165.46,164.82c-0.77,0-1.54-0.29-2.13-0.88c-1.18-1.18-1.18-3.08,0-4.26L274.16,48.84c1.18-1.18,3.08-1.18,4.26,0
			c1.18,1.18,1.18,3.08,0,4.26L167.59,163.93C167,164.52,166.23,164.82,165.46,164.82z"/>
	</g>
</g>
<g>
	<g>
		<path d="M199.6,173.29c-0.24,0-0.48-0.03-0.72-0.09l-34.15-8.48c-1.62-0.4-2.6-2.04-2.2-3.65c0.4-1.61,2.03-2.6,3.65-2.2
			l34.15,8.48c1.62,0.4,2.6,2.04,2.2,3.65C202.19,172.38,200.96,173.29,199.6,173.29z"/>
	</g>
</g>
<g>
	<g>
		<path d="M284.86,88.04c-1.35,0-2.58-0.92-2.93-2.29l-8.44-34.1c-0.06-0.24-0.09-0.48-0.09-0.72c0-1.67,1.35-3.06,3.01-3.06
			c1.54,0,2.8,1.11,2.99,2.59l8.38,33.85c0.4,1.61-0.58,3.25-2.2,3.65C285.34,88.01,285.09,88.04,284.86,88.04z"/>
	</g>
</g>
<g>
	<g>
		<path d="M165.46,164.82c-1.05,0-2.08-0.56-2.64-1.55L141.5,124.9c-0.81-1.46-0.28-3.29,1.17-4.1c1.44-0.79,3.28-0.28,4.1,1.17
			l21.32,38.37c0.81,1.46,0.28,3.29-1.17,4.1C166.46,164.69,165.96,164.82,165.46,164.82z"/>
	</g>
</g>
<g>
	<g>
		<path d="M144.14,126.45c-0.77,0-1.54-0.29-2.13-0.88c-1.18-1.17-1.18-3.08,0-4.26l93.82-93.99c1.18-1.18,3.08-1.18,4.26,0
			c1.18,1.17,1.18,3.08,0,4.26l-93.82,93.99C145.68,126.16,144.91,126.45,144.14,126.45z"/>
	</g>
</g>
<g>
	<g>
		<path d="M276.29,53.99c-0.5,0-1.01-0.12-1.48-0.39l-38.33-21.53c-1.45-0.81-1.97-2.65-1.15-4.1c0.82-1.45,2.64-1.98,4.1-1.15
			l38.33,21.53c1.45,0.81,1.97,2.65,1.15,4.1C278.36,53.43,277.34,53.99,276.29,53.99z"/>
	</g>
</g>
<g>
	<g>
		<path d="M220.91,194.61c-0.77,0-1.54-0.29-2.13-0.88l-21.31-21.32c-1.18-1.18-1.18-3.08,0-4.26c1.18-1.18,3.08-1.18,4.26,0
			l21.31,21.32c1.18,1.18,1.18,3.08,0,4.26C222.46,194.32,221.69,194.61,220.91,194.61z"/>
	</g>
</g>
<g>
	<g>
		<path d="M148.4,113.66c-0.79,0-1.58-0.31-2.17-0.92c-3.43-3.57-3.41-9.29,0.04-12.75c1.18-1.18,3.08-1.18,4.26,0
			c1.18,1.18,1.18,3.08,0,4.26c-1.17,1.17-1.15,3.06,0.04,4.3c1.15,1.2,1.12,3.11-0.08,4.26
			C149.9,113.39,149.16,113.66,148.4,113.66z"/>
	</g>
</g>
<g>
	<g>
		<path d="M225.14,36.94c-0.77,0-1.54-0.29-2.13-0.88c-0.58-0.57-1.33-0.89-2.13-0.89h-0.01c-0.8,0-1.55,0.32-2.13,0.89
			c-1.18,1.18-3.08,1.18-4.26,0c-1.18-1.18-1.18-3.08,0-4.26c3.52-3.53,9.25-3.54,12.79,0c1.18,1.18,1.18,3.08,0,4.26
			C226.68,36.64,225.91,36.94,225.14,36.94z"/>
	</g>
</g>
<g>
	<g>
		<path d="M148.4,105.14c-0.77,0-1.54-0.29-2.13-0.88c-1.18-1.18-1.18-3.08,0-4.26l68.2-68.2c1.18-1.18,3.08-1.18,4.26,0
			c1.18,1.18,1.18,3.08,0,4.26l-68.2,68.2C149.94,104.85,149.17,105.14,148.4,105.14z"/>
	</g>
</g>
<g>
	<g>
		<path d="M272.03,271.38c-0.77,0-1.54-0.29-2.13-0.88c-1.18-1.18-1.18-3.09,0-4.26l110.83-110.83c1.18-1.18,3.09-1.18,4.26,0
			c1.18,1.18,1.18,3.08,0,4.26L274.16,270.5C273.57,271.09,272.8,271.38,272.03,271.38z"/>
	</g>
</g>
<g>
	<g>
		<path d="M272.03,271.38c-1.35,0-2.59-0.92-2.93-2.29l-8.48-34.15c-0.4-1.61,0.58-3.25,2.2-3.65c1.62-0.41,3.25,0.59,3.65,2.2
			l8.48,34.15c0.4,1.61-0.58,3.25-2.2,3.65C272.51,271.35,272.26,271.38,272.03,271.38z"/>
	</g>
</g>
<g>
	<g>
		<path d="M382.99,160.43c-0.08,0-0.15,0-0.22-0.01l-0.08-0.01l-34.61-8.52c-1.61-0.4-2.6-2.03-2.2-3.65c0.4-1.61,2.03-2.6,3.65-2.2
			l34.1,8.44c1.66,0.12,2.7,1.52,2.58,3.19C386.09,159.25,384.57,160.43,382.99,160.43z"/>
	</g>
</g>
<g>
	<g>
		<path d="M310.39,292.69c-0.5,0-1-0.12-1.47-0.38l-38.36-21.31c-1.45-0.81-1.98-2.64-1.17-4.1c0.81-1.46,2.65-1.97,4.1-1.17
			l38.36,21.31c1.45,0.81,1.98,2.64,1.17,4.1C312.47,292.13,311.44,292.69,310.39,292.69z"/>
	</g>
</g>
<g>
	<g>
		<path d="M310.39,292.69c-0.77,0-1.54-0.29-2.13-0.88c-1.18-1.18-1.18-3.09,0-4.26l93.99-93.82c1.18-1.18,3.08-1.18,4.26,0
			c1.18,1.18,1.18,3.09,0,4.26l-93.99,93.82C311.93,292.4,311.16,292.69,310.39,292.69z"/>
	</g>
</g>
<g>
	<g>
		<path d="M404.38,198.87c-1.05,0-2.07-0.55-2.63-1.54l-21.52-38.32c-0.82-1.45-0.3-3.29,1.15-4.1c1.46-0.82,3.29-0.31,4.1,1.15
			l21.52,38.32c0.82,1.45,0.3,3.29-1.15,4.1C405.39,198.75,404.88,198.87,404.38,198.87z"/>
	</g>
</g>
<g>
	<g>
		<path d="M263.54,237.24c-0.77,0-1.54-0.29-2.13-0.88l-21.36-21.27c-1.18-1.18-1.18-3.08,0-4.26c1.18-1.18,3.08-1.18,4.26,0
			l21.35,21.26c1.18,1.17,1.18,3.08,0.01,4.26C265.09,236.94,264.31,237.24,263.54,237.24z"/>
	</g>
</g>
<g>
	<g>
		<path d="M327.47,290.19c-0.03,0-0.06-0.01-0.09-0.01c-2.41-0.02-4.66-0.99-6.33-2.72c-1.15-1.2-1.12-3.11,0.08-4.26
			c1.2-1.14,3.1-1.12,4.26,0.08c0.54,0.56,1.18,0.87,2.08,0.88c0.8,0,1.54-0.31,2.1-0.87c1.18-1.18,3.08-1.18,4.26,0
			c1.18,1.18,1.18,3.09,0,4.26C332.13,289.25,329.87,290.19,327.47,290.19z"/>
	</g>
</g>
<g>
	<g>
		<path d="M399.95,220.19c-0.77,0-1.54-0.29-2.13-0.88c-1.18-1.18-1.18-3.08,0-4.26c0.55-0.55,0.86-1.3,0.85-2.08
			c-0.01-0.8-0.33-1.56-0.9-2.13c-1.18-1.18-1.18-3.08,0-4.26c1.18-1.18,3.08-1.18,4.26,0c3.53,3.53,3.54,9.24,0.05,12.74
			C401.49,219.89,400.72,220.19,399.95,220.19z"/>
	</g>
</g>
<g>
	<g>
		<path d="M331.7,288.43c-0.77,0-1.54-0.29-2.13-0.88c-1.18-1.18-1.18-3.09,0-4.26l68.25-68.25c1.18-1.18,3.08-1.18,4.26,0
			c1.18,1.18,1.18,3.08,0,4.26l-68.25,68.25C333.25,288.14,332.47,288.43,331.7,288.43z"/>
	</g>
</g>
<g>
	<g>
		<path d="M331.7,126.45c-0.77,0-1.54-0.29-2.13-0.88c-1.18-1.18-1.18-3.08,0-4.26c2.3-2.3,3.56-5.34,3.57-8.57
			c0.01-3.22-1.25-6.25-3.53-8.52c-4.7-4.7-12.37-4.69-17.1,0.05c-1.18,1.18-3.09,1.18-4.26,0c-1.18-1.18-1.18-3.08,0-4.26
			c7.08-7.08,18.58-7.09,25.62-0.05c3.42,3.41,5.3,7.96,5.29,12.8c-0.01,4.83-1.9,9.39-5.33,12.82
			C333.25,126.16,332.47,126.45,331.7,126.45z"/>
	</g>
</g>
<g>
	<g>
		<path d="M348.8,151.98c-0.77,0-1.54-0.29-2.13-0.88l-63.94-63.94c-1.18-1.18-1.18-3.08,0-4.26s3.08-1.18,4.26,0l63.94,63.94
			c1.18,1.18,1.18,3.08,0,4.26C350.34,151.69,349.57,151.98,348.8,151.98z"/>
	</g>
</g>
<g>
	<g>
		<path d="M276.3,200.96c-10.48,0-20.31-4.09-27.68-11.5c-15.27-15.28-15.29-40.12-0.04-55.36c7.42-7.42,17.27-11.51,27.73-11.51
			c10.44,0,20.29,4.07,27.72,11.46c15.24,15.34,15.23,40.19,0.01,55.42C296.63,196.88,286.77,200.96,276.3,200.96z M276.31,128.62
			c-8.85,0-17.19,3.46-23.47,9.74c-12.9,12.9-12.87,33.92,0.05,46.84c6.24,6.28,14.55,9.73,23.41,9.73c8.87,0,17.2-3.46,23.48-9.73
			c12.88-12.89,12.88-33.93-0.01-46.9C293.49,132.06,285.15,128.62,276.31,128.62z"/>
	</g>
</g>
<g>
	<g>
		<path d="M165.46,139.24c-0.32,0-0.64-0.05-0.96-0.16c-1.58-0.52-2.43-2.24-1.9-3.82l4.3-12.83c0.53-1.57,2.24-2.45,3.82-1.9
			c1.58,0.52,2.43,2.24,1.9,3.82l-4.3,12.83C167.89,138.45,166.72,139.24,165.46,139.24z"/>
	</g>
</g>
<g>
	<g>
		<path d="M169.76,126.41c-1.27,0-2.44-0.8-2.86-2.07c-0.52-1.58,0.34-3.29,1.91-3.81l12.75-4.22c1.57-0.54,3.28,0.34,3.81,1.91
			c0.52,1.58-0.34,3.28-1.91,3.81l-12.75,4.22C170.4,126.36,170.07,126.41,169.76,126.41z"/>
	</g>
</g>
<g>
	<g>
		<path d="M182.51,122.19c-0.32,0-0.64-0.05-0.95-0.15c-1.58-0.53-2.43-2.24-1.91-3.82l4.26-12.79c0.54-1.58,2.25-2.42,3.82-1.91
			c1.58,0.53,2.43,2.24,1.91,3.82l-4.26,12.79C184.94,121.39,183.77,122.19,182.51,122.19z"/>
	</g>
</g>
<g>
	<g>
		<path d="M186.77,109.4c-1.26,0-2.44-0.8-2.86-2.06c-0.52-1.58,0.33-3.29,1.91-3.82l12.79-4.26c1.59-0.52,3.28,0.33,3.82,1.91
			c0.52,1.58-0.33,3.29-1.91,3.82l-12.79,4.26C187.4,109.35,187.09,109.4,186.77,109.4z"/>
	</g>
</g>
<g>
	<g>
		<path d="M199.57,105.1c-0.77,0-1.54-0.29-2.12-0.87c-0.94-0.94-1.14-2.33-0.59-3.45L201,88.34c0.54-1.57,2.24-2.43,3.82-1.91
			c1.58,0.53,2.43,2.24,1.91,3.82l-4.26,12.79c-0.15,0.44-0.4,0.85-0.73,1.18C201.14,104.8,200.35,105.1,199.57,105.1z"/>
	</g>
</g>
<g>
	<g>
		<path d="M203.87,92.31c-1.26,0-2.44-0.8-2.86-2.06c-0.52-1.58,0.33-3.28,1.91-3.82l12.79-4.26c1.58-0.52,3.28,0.33,3.82,1.91
			c0.52,1.58-0.33,3.29-1.91,3.82l-12.79,4.26C204.5,92.26,204.18,92.31,203.87,92.31z"/>
	</g>
</g>
<g>
	<g>
		<path d="M216.65,88.04c-0.32,0-0.64-0.05-0.95-0.15c-1.58-0.53-2.43-2.24-1.91-3.82l4.26-12.79c0.53-1.58,2.24-2.43,3.82-1.91
			c1.58,0.53,2.43,2.24,1.91,3.82l-4.26,12.79C219.09,87.24,217.91,88.04,216.65,88.04z"/>
	</g>
</g>
<g>
	<g>
		<path d="M220.91,75.25c-1.26,0-2.44-0.8-2.86-2.06c-0.52-1.58,0.33-3.28,1.91-3.82l12.79-4.26c1.58-0.52,3.28,0.33,3.81,1.91
			c0.52,1.58-0.33,3.28-1.91,3.82l-12.79,4.26C221.55,75.2,221.23,75.25,220.91,75.25z"/>
	</g>
</g>
<g>
	<g>
		<path d="M233.71,70.99c-0.32,0-0.64-0.05-0.95-0.15c-1.58-0.53-2.43-2.24-1.91-3.82l4.26-12.79c0.53-1.58,2.25-2.43,3.82-1.91
			c1.58,0.53,2.43,2.24,1.91,3.82l-4.26,12.79C236.14,70.19,234.97,70.99,233.71,70.99z"/>
	</g>
</g>
<g>
	<g>
		<path d="M237.97,58.2c-1.26,0-2.44-0.8-2.86-2.06c-0.52-1.58,0.33-3.28,1.91-3.82l12.79-4.26c1.58-0.52,3.28,0.33,3.82,1.91
			c0.52,1.58-0.33,3.28-1.91,3.82l-12.79,4.26C238.6,58.16,238.29,58.2,237.97,58.2z"/>
	</g>
</g>
<g>
	<g>
		<path d="M378.68,198.92c-0.32,0-0.64-0.05-0.95-0.15c-1.58-0.53-2.43-2.24-1.91-3.82l4.26-12.79c0.54-1.58,2.24-2.43,3.82-1.91
			c1.58,0.53,2.43,2.24,1.91,3.82l-4.26,12.79C381.11,198.11,379.94,198.92,378.68,198.92z"/>
	</g>
</g>
<g>
	<g>
		<path d="M365.89,203.18c-1.26,0-2.44-0.8-2.86-2.06c-0.52-1.58,0.33-3.28,1.91-3.82l12.79-4.26c1.58-0.52,3.28,0.33,3.82,1.91
			c0.52,1.58-0.33,3.28-1.91,3.82l-12.79,4.26C366.53,203.13,366.21,203.18,365.89,203.18z"/>
	</g>
</g>
<g>
	<g>
		<path d="M361.63,215.96c-0.32,0-0.64-0.05-0.95-0.15c-1.58-0.53-2.43-2.24-1.91-3.82l4.26-12.79c0.53-1.58,2.24-2.43,3.82-1.91
			c1.58,0.53,2.43,2.24,1.91,3.82l-4.26,12.79C364.06,215.16,362.89,215.96,361.63,215.96z"/>
	</g>
</g>
<g>
	<g>
		<path d="M348.84,220.23c-1.26,0-2.44-0.8-2.86-2.06c-0.52-1.58,0.33-3.28,1.91-3.82l12.79-4.26c1.58-0.52,3.28,0.33,3.81,1.91
			c0.52,1.58-0.33,3.29-1.91,3.82l-12.79,4.26C349.48,220.18,349.16,220.23,348.84,220.23z"/>
	</g>
</g>
<g>
	<g>
		<path d="M344.58,233.01c-0.31,0-0.63-0.05-0.95-0.15c-1.58-0.52-2.44-2.22-1.91-3.81l4.22-12.74c0.15-0.45,0.39-0.85,0.73-1.18
			c1.18-1.18,3.11-1.2,4.29-0.02c0.94,0.94,1.14,2.33,0.59,3.44l-4.1,12.4C347.02,232.21,345.84,233.01,344.58,233.01z"/>
	</g>
</g>
<g>
	<g>
		<path d="M331.79,237.28c-1.26,0-2.44-0.8-2.86-2.06c-0.52-1.58,0.33-3.28,1.91-3.82l12.79-4.27c1.58-0.52,3.28,0.32,3.82,1.91
			c0.52,1.58-0.33,3.28-1.91,3.82l-12.79,4.27C332.42,237.23,332.1,237.28,331.79,237.28z"/>
	</g>
</g>
<g>
	<g>
		<path d="M327.52,250.07c-0.32,0-0.64-0.05-0.95-0.15c-1.58-0.53-2.43-2.24-1.91-3.82l4.26-12.79c0.53-1.57,2.25-2.43,3.81-1.91
			c1.58,0.53,2.43,2.24,1.91,3.82l-4.26,12.79C329.96,249.26,328.78,250.07,327.52,250.07z"/>
	</g>
</g>
<g>
	<g>
		<path d="M314.74,254.33c-1.26,0-2.44-0.8-2.86-2.06c-0.52-1.58,0.33-3.28,1.91-3.82l12.79-4.26c1.58-0.52,3.28,0.33,3.82,1.91
			c0.52,1.58-0.33,3.28-1.91,3.82l-12.79,4.26C315.37,254.28,315.05,254.33,314.74,254.33z"/>
	</g>
</g>
<g>
	<g>
		<path d="M310.43,267.16c-0.32,0-0.64-0.05-0.96-0.16c-1.58-0.53-2.43-2.24-1.9-3.82l4.31-12.83c0.52-1.58,2.24-2.44,3.82-1.9
			c1.58,0.53,2.43,2.24,1.9,3.82l-4.31,12.83C312.87,266.37,311.69,267.16,310.43,267.16z"/>
	</g>
</g>
<g>
	<g>
		<path d="M297.64,271.42c-1.26,0-2.44-0.8-2.86-2.06c-0.52-1.58,0.33-3.28,1.91-3.82l12.79-4.26c1.58-0.52,3.29,0.33,3.82,1.91
			c0.52,1.58-0.33,3.28-1.91,3.82l-12.79,4.26C298.28,271.38,297.96,271.42,297.64,271.42z"/>
	</g>
</g>
<g>
	<g>
		<path d="M254.97,160.55c-1.35,0-2.58-0.91-2.93-2.28c-0.4-1.61,0.58-3.25,2.2-3.66l34.15-8.57c1.62-0.41,3.25,0.58,3.66,2.19
			c0.4,1.61-0.58,3.26-2.19,3.66l-34.16,8.57C255.46,160.53,255.21,160.55,254.97,160.55z"/>
	</g>
</g>
<g>
	<g>
		<path d="M280.59,186.09c-0.24,0-0.49-0.03-0.74-0.09c-1.61-0.41-2.59-2.05-2.19-3.66l8.53-34.1c0.4-1.62,2.01-2.6,3.66-2.2
			c1.61,0.41,2.6,2.04,2.2,3.66l-8.53,34.11C283.17,185.17,281.95,186.09,280.59,186.09z"/>
	</g>
</g>
<g>
	<g>
		<path d="M280.59,186.09c-0.77,0-1.54-0.29-2.13-0.88l-25.62-25.53c-1.18-1.18-1.18-3.08-0.01-4.26c1.18-1.19,3.09-1.18,4.26-0.01
			l25.62,25.53c1.18,1.18,1.18,3.08,0.01,4.26C282.14,185.79,281.36,186.09,280.59,186.09z"/>
	</g>
</g>
<g>
	<g>
		<path d="M289.08,177.6c-0.77,0-1.54-0.29-2.13-0.88l-25.58-25.57c-1.18-1.18-1.18-3.08,0-4.26c1.18-1.18,3.09-1.18,4.26,0
			l25.58,25.57c1.18,1.18,1.18,3.08,0,4.26C290.62,177.31,289.85,177.6,289.08,177.6z"/>
	</g>
</g>
<g>
	<g>
		<path class="st2" d="M208.15,153.77c-2.42,0-4.7-0.95-6.42-2.67c-1.69-1.63-2.66-3.88-2.68-6.29c-0.02-2.44,0.91-4.73,2.63-6.45
			c3.43-3.43,9.37-3.42,12.79,0c1.68,1.62,2.65,3.86,2.67,6.27c0.03,2.46-0.92,4.77-2.67,6.52
			C212.78,152.84,210.54,153.77,208.15,153.77z M208.08,141.73c-0.8,0-1.55,0.32-2.13,0.9c-0.57,0.57-0.88,1.32-0.87,2.13
			c0.01,0.78,0.32,1.51,0.87,2.04c1.21,1.21,3.13,1.21,4.26,0.09c0.59-0.59,0.92-1.38,0.91-2.2c-0.01-0.78-0.31-1.49-0.87-2.03
			C209.63,142.05,208.88,141.73,208.08,141.73z"/>
	</g>
</g>
<g>
	<g>
		<path class="st2" d="M233.68,128.21c-2.44,0-4.72-0.97-6.41-2.71c-1.65-1.6-2.61-3.84-2.64-6.24c-0.02-2.46,0.92-4.76,2.67-6.52
			c3.41-3.41,9.39-3.4,12.79,0c3.53,3.53,3.5,9.28-0.05,12.83C238.35,127.27,236.09,128.21,233.68,128.21z M233.71,116.12
			c-0.81,0-1.57,0.31-2.14,0.88c-0.59,0.59-0.91,1.37-0.91,2.2c0.01,0.78,0.32,1.5,0.87,2.04c1.25,1.28,3.14,1.2,4.26,0.08
			c1.2-1.2,1.22-3.13,0.05-4.31C235.27,116.43,234.51,116.12,233.71,116.12z"/>
	</g>
</g>
<g>
	<g>
		<path class="st2" d="M259.28,102.59c-2.42,0-4.69-0.94-6.39-2.64c-3.53-3.53-3.53-9.26,0-12.79c3.4-3.4,9.38-3.4,12.79,0
			c1.7,1.7,2.64,3.97,2.64,6.39c0,2.42-0.94,4.69-2.64,6.39C263.97,101.65,261.7,102.59,259.28,102.59z M259.28,90.55
			c-0.81,0-1.57,0.31-2.13,0.88c-1.18,1.18-1.18,3.08,0,4.26c1.13,1.13,3.13,1.13,4.26,0c1.18-1.18,1.18-3.08,0-4.26
			C260.85,90.86,260.09,90.55,259.28,90.55z"/>
	</g>
</g>
<g>
	<g>
		<path class="st2" d="M289.14,234.75c-2.42,0-4.7-0.95-6.41-2.67c-1.69-1.62-2.66-3.87-2.68-6.28c-0.02-2.44,0.91-4.73,2.64-6.46
			c3.41-3.41,9.3-3.44,12.79-0.09c3.57,3.71,3.53,9.33-0.01,12.87C293.78,233.82,291.54,234.75,289.14,234.75z M289.1,222.71
			c-0.81,0-1.57,0.32-2.15,0.9c-0.57,0.57-0.88,1.32-0.87,2.13c0.01,0.78,0.32,1.51,0.88,2.04c1.23,1.23,3.13,1.2,4.26,0.09
			c1.19-1.19,1.2-3.11,0.01-4.35C290.69,223.03,289.92,222.71,289.1,222.71z"/>
	</g>
</g>
<g>
	<g>
		<path class="st2" d="M314.68,209.2c-2.45,0-4.73-0.97-6.42-2.73c-1.65-1.58-2.61-3.82-2.64-6.23c-0.02-2.45,0.93-4.77,2.68-6.52
			c3.4-3.4,9.38-3.4,12.79,0c1.71,1.71,2.64,3.99,2.63,6.41c-0.01,2.42-0.96,4.7-2.68,6.42C319.34,208.26,317.09,209.2,314.68,209.2
			z M314.7,197.11c-0.81,0-1.57,0.31-2.13,0.88c-0.59,0.59-0.92,1.38-0.91,2.2c0.01,0.78,0.32,1.5,0.87,2.03
			c1.25,1.29,3.14,1.21,4.26,0.09c0.59-0.59,0.91-1.37,0.92-2.18c0-0.81-0.31-1.56-0.87-2.13
			C316.26,197.43,315.5,197.11,314.7,197.11z"/>
	</g>
</g>
<g>
	<g>
		<path class="st2" d="M340.27,183.58c-2.42,0-4.69-0.94-6.39-2.64c-3.52-3.52-3.52-9.25,0-12.79c3.4-3.4,9.38-3.4,12.79,0
			c1.7,1.7,2.64,3.97,2.64,6.39c0,2.42-0.94,4.69-2.64,6.39C344.96,182.64,342.69,183.58,340.27,183.58z M340.27,171.54
			c-0.81,0-1.57,0.31-2.13,0.87c-1.17,1.18-1.17,3.09,0,4.26c1.14,1.14,3.14,1.12,4.27,0c1.18-1.18,1.18-3.08,0-4.26
			C341.84,171.85,341.08,171.54,340.27,171.54z"/>
	</g>
</g>
<g>
	<g>
		<path d="M199.6,173.29c-0.77,0-1.54-0.29-2.13-0.88c-1.18-1.18-1.18-3.08,0-4.26l8.48-8.48c1.18-1.18,3.08-1.18,4.26,0
			s1.18,3.08,0,4.26l-8.48,8.48C201.15,173,200.37,173.29,199.6,173.29z"/>
	</g>
</g>
<g>
	<g>
		<path d="M276.33,96.57c-0.77,0-1.54-0.29-2.13-0.88c-1.18-1.18-1.18-3.08,0-4.26l8.53-8.52c1.18-1.18,3.08-1.18,4.26,0
			c1.18,1.18,1.18,3.08,0,4.26l-8.53,8.52C277.87,96.27,277.1,96.57,276.33,96.57z"/>
	</g>
</g>
<g>
	<g>
		<path d="M340.27,160.51c-0.77,0-1.54-0.29-2.13-0.88c-1.18-1.18-1.18-3.08,0-4.26l8.53-8.52c1.18-1.18,3.08-1.18,4.26,0
			c1.18,1.18,1.18,3.08,0,4.26l-8.53,8.52C341.81,160.21,341.04,160.51,340.27,160.51z"/>
	</g>
</g>
<g>
	<g>
		<path d="M263.54,237.24c-0.77,0-1.54-0.29-2.13-0.88c-1.18-1.18-1.18-3.08,0-4.26l8.48-8.48c1.18-1.18,3.09-1.18,4.26,0
			c1.18,1.18,1.18,3.08,0,4.26l-8.48,8.48C265.09,236.94,264.31,237.24,263.54,237.24z"/>
	</g>
</g>
<g>
	<g>
		<path d="M45.67,412.25c-6.45,0-12.5-2.51-17.05-7.06c-9.4-9.4-9.4-24.7,0-34.1c2.71-2.71,6.52-2.32,10.18-1.94
			c3.3,0.34,6.69,0.69,9.84-0.79c1.49-0.71,3.3-0.06,4.01,1.44c0.71,1.51,0.06,3.3-1.44,4.01c-4.66,2.19-9.31,1.71-13.03,1.34
			c-2.27-0.25-4.62-0.48-5.3,0.2c-7.05,7.05-7.05,18.52,0,25.57c6.82,6.82,18.76,6.82,25.58,0c0.65-0.65,0.41-3.09,0.19-5.25
			c-0.38-3.76-0.84-8.43,1.4-13.14c0.71-1.5,2.52-2.14,4.01-1.43c1.5,0.71,2.14,2.51,1.42,4.01c-1.51,3.19-1.17,6.62-0.84,9.95
			c0.37,3.66,0.75,7.44-1.93,10.11C58.18,409.75,52.12,412.25,45.67,412.25z"/>
	</g>
</g>
<g>
	<g>
		<path d="M96.83,361.33c-0.58,0-1.16-0.17-1.67-0.51l-25.57-17.05c-1.38-0.92-1.76-2.8-0.84-4.18c0.93-1.39,2.8-1.75,4.18-0.84
			L98.5,355.8c1.38,0.92,1.76,2.8,0.84,4.18C98.75,360.85,97.8,361.33,96.83,361.33z"/>
	</g>
</g>
<g>
	<g>
		<path d="M101.09,357.06c-0.77,0-1.54-0.29-2.13-0.88c-1.18-1.18-1.18-3.08,0-4.26l8.52-8.53c1.18-1.18,3.08-1.18,4.26,0
			c1.18,1.18,1.18,3.08,0,4.26l-8.52,8.53C102.63,356.77,101.86,357.06,101.09,357.06z"/>
	</g>
</g>
<g>
	<g>
		<path d="M75.51,340.01c-0.77,0-1.54-0.29-2.13-0.88c-1.18-1.18-1.18-3.08,0-4.26l8.52-8.52c1.18-1.18,3.08-1.18,4.26,0
			c1.18,1.18,1.18,3.08,0,4.26l-8.52,8.52C77.06,339.71,76.29,340.01,75.51,340.01z"/>
	</g>
</g>
<g>
	<g>
		<path d="M109.61,348.53c-0.58,0-1.16-0.17-1.67-0.51l-25.57-17.05c-1.38-0.92-1.76-2.8-0.84-4.18c0.93-1.39,2.8-1.75,4.18-0.84
			l25.57,17.05c1.38,0.92,1.76,2.8,0.84,4.18C111.54,348.06,110.58,348.53,109.61,348.53z"/>
	</g>
</g>
<g>
	<g>
		<path d="M113.87,344.27c-0.77,0-1.54-0.29-2.13-0.88c-1.18-1.18-1.18-3.09,0-4.26l8.53-8.52c1.18-1.18,3.08-1.18,4.26,0
			c1.18,1.18,1.18,3.08,0,4.26l-8.53,8.52C115.42,343.98,114.65,344.27,113.87,344.27z"/>
	</g>
</g>
<g>
	<g>
		<path d="M88.3,327.22c-0.77,0-1.54-0.29-2.13-0.88c-1.18-1.18-1.18-3.09,0-4.26l8.52-8.52c1.18-1.18,3.08-1.18,4.26,0
			c1.18,1.18,1.18,3.08,0,4.26l-8.52,8.52C89.84,326.93,89.07,327.22,88.3,327.22z"/>
	</g>
</g>
<g>
	<g>
		<path d="M122.41,335.75c-0.58,0-1.16-0.17-1.67-0.51l-25.58-17.05c-1.38-0.92-1.76-2.8-0.84-4.18c0.93-1.39,2.81-1.75,4.18-0.84
			l25.58,17.05c1.38,0.92,1.76,2.8,0.84,4.18C124.33,335.28,123.38,335.75,122.41,335.75z"/>
	</g>
</g>
<g>
	<g>
		<path d="M126.67,331.48c-0.77,0-1.54-0.29-2.13-0.88c-1.18-1.18-1.18-3.08,0-4.26l8.52-8.52c1.18-1.18,3.08-1.18,4.26,0
			s1.18,3.08,0,4.26l-8.52,8.52C128.21,331.19,127.44,331.48,126.67,331.48z"/>
	</g>
</g>
<g>
	<g>
		<path d="M101.09,314.44c-0.77,0-1.54-0.29-2.13-0.88c-1.18-1.18-1.18-3.08,0-4.26l8.52-8.52c1.18-1.18,3.08-1.18,4.26,0
			c1.18,1.18,1.18,3.09,0,4.26l-8.52,8.52C102.63,314.14,101.86,314.44,101.09,314.44z"/>
	</g>
</g>
<g>
	<g>
		<path d="M135.19,322.96c-0.58,0-1.16-0.16-1.67-0.51l-25.58-17.05c-1.38-0.92-1.76-2.8-0.84-4.18c0.93-1.39,2.8-1.75,4.18-0.84
			l25.58,17.05c1.38,0.92,1.76,2.8,0.84,4.18C137.12,322.49,136.16,322.96,135.19,322.96z"/>
	</g>
</g>
<g>
	<g>
		<path d="M139.45,318.7c-0.77,0-1.54-0.29-2.13-0.88c-1.18-1.18-1.18-3.08,0-4.26l8.52-8.52c1.18-1.18,3.08-1.18,4.26,0
			c1.18,1.18,1.18,3.08,0,4.26l-8.52,8.52C141,318.4,140.23,318.7,139.45,318.7z"/>
	</g>
</g>
<g>
	<g>
		<path d="M113.87,301.64c-0.77,0-1.54-0.29-2.13-0.88c-1.18-1.18-1.18-3.08,0-4.26l8.53-8.52c1.18-1.18,3.08-1.18,4.26,0
			c1.18,1.18,1.18,3.08,0,4.26l-8.53,8.52C115.42,301.35,114.65,301.64,113.87,301.64z"/>
	</g>
</g>
<g>
	<g>
		<path d="M147.98,310.17c-0.58,0-1.16-0.17-1.67-0.51l-25.57-17.06c-1.38-0.92-1.76-2.8-0.84-4.18c0.93-1.39,2.81-1.75,4.18-0.84
			l25.57,17.05c1.38,0.92,1.76,2.8,0.84,4.18C149.9,309.7,148.95,310.17,147.98,310.17z"/>
	</g>
</g>
<g>
	<g>
		<path d="M152.24,305.91c-0.77,0-1.54-0.29-2.13-0.88c-1.18-1.18-1.18-3.08,0-4.26l8.52-8.53c1.18-1.18,3.08-1.18,4.26,0
			c1.18,1.18,1.18,3.09,0,4.26l-8.52,8.53C153.78,305.62,153.01,305.91,152.24,305.91z"/>
	</g>
</g>
<g>
	<g>
		<path d="M126.67,288.86c-0.77,0-1.54-0.29-2.13-0.88c-1.18-1.18-1.18-3.09,0-4.26l8.52-8.52c1.18-1.18,3.08-1.18,4.26,0
			s1.18,3.09,0,4.26l-8.52,8.52C128.21,288.56,127.44,288.86,126.67,288.86z"/>
	</g>
</g>
<g>
	<g>
		<path d="M160.77,297.38c-0.58,0-1.16-0.17-1.67-0.51l-25.57-17.05c-1.38-0.92-1.76-2.8-0.84-4.18c0.93-1.39,2.81-1.75,4.18-0.84
			l25.57,17.05c1.38,0.92,1.76,2.8,0.84,4.18C162.69,296.91,161.74,297.38,160.77,297.38z"/>
	</g>
</g>
<g>
	<g>
		<path d="M165.03,293.12c-0.77,0-1.54-0.29-2.13-0.88c-1.18-1.18-1.18-3.08,0-4.26l8.52-8.52c1.18-1.18,3.08-1.18,4.26,0
			c1.18,1.18,1.18,3.08,0,4.26l-8.52,8.52C166.58,292.82,165.8,293.12,165.03,293.12z"/>
	</g>
</g>
<g>
	<g>
		<path d="M139.45,276.07c-0.77,0-1.54-0.29-2.13-0.88c-1.18-1.18-1.18-3.08,0-4.26l8.52-8.52c1.18-1.18,3.08-1.18,4.26,0
			c1.18,1.18,1.18,3.08,0,4.26l-8.52,8.52C141,275.77,140.23,276.07,139.45,276.07z"/>
	</g>
</g>
<g>
	<g>
		<path d="M173.56,284.59c-0.58,0-1.16-0.17-1.67-0.51l-25.58-17.05c-1.38-0.92-1.76-2.8-0.84-4.18c0.93-1.39,2.8-1.75,4.18-0.84
			l25.58,17.05c1.38,0.92,1.76,2.8,0.84,4.18C175.48,284.12,174.53,284.59,173.56,284.59z"/>
	</g>
</g>
<g>
	<g>
		<path d="M177.82,280.33c-0.77,0-1.54-0.29-2.13-0.88c-1.18-1.18-1.18-3.09,0-4.26l8.52-8.52c1.18-1.18,3.08-1.18,4.26,0
			c1.18,1.18,1.18,3.08,0,4.26l-8.52,8.52C179.36,280.04,178.59,280.33,177.82,280.33z"/>
	</g>
</g>
<g>
	<g>
		<path d="M152.24,263.28c-0.77,0-1.54-0.29-2.13-0.88c-1.18-1.18-1.18-3.09,0-4.26l8.52-8.52c1.18-1.18,3.08-1.18,4.26,0
			c1.18,1.18,1.18,3.08,0,4.26l-8.52,8.52C153.78,262.99,153.01,263.28,152.24,263.28z"/>
	</g>
</g>
<g>
	<g>
		<path d="M186.34,271.81c-0.58,0-1.16-0.17-1.67-0.51l-25.58-17.05c-1.38-0.92-1.76-2.8-0.84-4.18c0.93-1.39,2.81-1.75,4.18-0.84
			l25.58,17.05c1.38,0.92,1.76,2.8,0.84,4.18C188.27,271.34,187.32,271.81,186.34,271.81z"/>
	</g>
</g>
<g>
	<g>
		<path d="M190.61,267.54c-0.77,0-1.54-0.29-2.13-0.88c-1.18-1.18-1.18-3.08,0-4.26l8.52-8.52c1.18-1.18,3.08-1.18,4.26,0
			c1.18,1.18,1.18,3.08,0,4.26l-8.52,8.52C192.15,267.25,191.38,267.54,190.61,267.54z"/>
	</g>
</g>
<g>
	<g>
		<path d="M165.03,250.5c-0.77,0-1.54-0.29-2.13-0.88c-1.18-1.18-1.18-3.08,0-4.26l8.53-8.52c1.18-1.18,3.08-1.18,4.26,0
			c1.18,1.18,1.18,3.09,0,4.26l-8.53,8.52C166.57,250.2,165.8,250.5,165.03,250.5z"/>
	</g>
</g>
<g>
	<g>
		<path d="M199.13,259.02c-0.58,0-1.16-0.17-1.67-0.51l-25.57-17.05c-1.38-0.92-1.76-2.8-0.84-4.18c0.93-1.39,2.8-1.75,4.18-0.84
			l25.57,17.05c1.38,0.92,1.76,2.8,0.84,4.18C201.06,258.55,200.1,259.02,199.13,259.02z"/>
	</g>
</g>
<g>
	<g>
		<path d="M203.39,254.76c-0.77,0-1.54-0.29-2.13-0.88c-1.18-1.18-1.18-3.08,0-4.26l4.26-4.26c1.18-1.18,3.08-1.18,4.26,0
			c1.18,1.18,1.18,3.08,0,4.26l-4.26,4.26C204.94,254.46,204.17,254.76,203.39,254.76z"/>
	</g>
</g>
<g>
	<g>
		<path d="M177.82,237.7c-0.77,0-1.54-0.29-2.13-0.88c-1.18-1.18-1.18-3.08,0-4.26l8.52-8.52c1.18-1.18,3.08-1.18,4.26,0
			c1.18,1.18,1.18,3.08,0,4.26l-8.52,8.52C179.36,237.41,178.59,237.7,177.82,237.7z"/>
	</g>
</g>
<g>
	<g>
		<path class="st6" d="M45.67,400.2c-3.08,0-6.18-1.18-8.52-3.53c-4.7-4.7-4.7-12.35,0-17.05c1.18-1.18,3.08-1.18,4.26,0
			c1.18,1.18,1.18,3.09,0,4.26c-2.35,2.35-2.35,6.18,0,8.52c2.36,2.35,6.17,2.35,8.52,0c1.18-1.18,3.08-1.18,4.26,0
			c1.18,1.18,1.18,3.08,0,4.26C51.85,399.02,48.76,400.2,45.67,400.2z"/>
	</g>
</g>
</svg>
