<?xml version="1.0" encoding="utf-8"?>
<!-- Generator: Adobe Illustrator 24.0.2, SVG Export Plug-In . SVG Version: 6.00 Build 0)  -->
<svg version="1.1" id="Layer_1" xmlns="http://www.w3.org/2000/svg" xmlns:xlink="http://www.w3.org/1999/xlink" x="0px" y="0px"
	 viewBox="0 0 432 432" style="enable-background:new 0 0 432 432;" xml:space="preserve">
<style type="text/css">
	.st0{fill:#FF8719;}
	.st1{fill:#91562F;}
	.st2{fill:#054AB3;}
	.st3{fill:#F9B44D;}
	.st4{fill:#F0E4D6;}
	.st5{opacity:0.5;}
	.st6{fill:#FFFFFF;}
	.st7{opacity:0.3;}
	.st8{fill:#E6E9ED;}
	.st9{opacity:0.7;}
	.st10{fill:#FF8719;stroke:#000000;stroke-width:6;stroke-miterlimit:10;}
	.st11{fill:#054AB3;stroke:#000000;stroke-width:6;stroke-miterlimit:10;}
	.st12{fill:#FF8719;stroke:#000000;stroke-width:7;stroke-miterlimit:10;}
</style>
<path class="st1" d="M337,122.45c-1.34,0-2.65-0.39-3.76-1.14c-12.12-8.11-26.38-12.42-40.97-12.42H137.77
	c-14.6-0.01-28.87,4.3-41,12.42c-2.03,1.34-4.6,1.5-6.78,0.43l-27.11-13.55l6.06-12.13l23.72,11.85
	c13.61-8.22,29.21-12.57,45.11-12.56h154.49c15.92-0.01,31.54,4.33,45.16,12.56l23.69-11.85l6.06,12.13l-27.11,13.55
	C339.11,122.2,338.06,122.45,337,122.45z"/>
<path class="st2" d="M309.89,413.88H120.12c0-14.97,12.14-27.11,27.11-27.11h135.55C297.75,386.77,309.89,398.9,309.89,413.88z"/>
<path class="st2" d="M282.78,386.77h-54.22c14.97,0,27.11,12.14,27.11,27.11h54.22C309.89,398.9,297.75,386.77,282.78,386.77z"/>
<polygon class="st2" points="255.67,386.77 174.34,386.77 201.45,359.66 228.56,359.66 "/>
<rect x="201.45" y="75" class="st2" width="27.11" height="284.65"/>
<path class="st0" d="M228.56,75h-27.11l-6.98-27.92c-2.84-11.34,4.05-22.83,15.4-25.67c1.68-0.42,3.41-0.63,5.14-0.63l0,0
	c11.69,0,21.17,9.47,21.17,21.17c0,1.73-0.21,3.46-0.63,5.14L228.56,75z"/>
<path class="st0" d="M215,20.78c-2.16,0.03-4.3,0.4-6.36,1.08c10.65,3.33,16.87,14.39,14.18,25.22L215.85,75h12.71l6.98-27.92
	c2.84-11.34-4.05-22.83-15.4-25.67C218.47,20.99,216.74,20.78,215,20.78z"/>
<rect x="181.12" y="68.22" class="st3" width="67.77" height="13.55"/>
<g>
	<path class="st4" d="M158.58,261.44L93.01,118.38L27.45,261.44c-1.56,3.4-5.58,4.89-8.99,3.33l0,0l0,0
		c-3.4-1.56-4.89-5.58-3.33-8.99l0,0l71.73-156.5c1.56-3.4,5.58-4.89,8.99-3.33c1.48,0.68,2.66,1.86,3.33,3.33l71.73,156.5
		c1.57,3.4,0.07,7.42-3.33,8.98l0,0l0,0C164.16,266.33,160.14,264.84,158.58,261.44L158.58,261.44z"/>
	<path class="st4" d="M402.56,261.44L337,118.38l-65.56,143.06c-1.56,3.4-5.58,4.89-8.99,3.33l0,0l0,0
		c-3.4-1.56-4.89-5.58-3.33-8.99l0,0l71.73-156.5c1.56-3.4,5.58-4.89,8.99-3.33c1.48,0.68,2.66,1.86,3.33,3.33l71.73,156.5
		c1.57,3.4,0.07,7.42-3.33,8.98l0,0l0,0C408.15,266.33,404.13,264.84,402.56,261.44L402.56,261.44z"/>
</g>
<path class="st0" d="M262.45,264.77h149.1l0,0l0,0c0,22.46-18.2,40.66-40.66,40.66h-67.77
	C280.66,305.44,262.45,287.23,262.45,264.77L262.45,264.77L262.45,264.77z"/>
<path class="st0" d="M370.88,264.77c0,22.46-18.2,40.66-40.66,40.66h40.66c22.46,0,40.66-18.2,40.66-40.66H370.88z"/>
<path class="st0" d="M18.46,264.77h149.1l0,0l0,0c0,22.46-18.2,40.66-40.66,40.66H59.12C36.67,305.44,18.46,287.23,18.46,264.77
	L18.46,264.77L18.46,264.77z"/>
<path class="st0" d="M126.9,264.77c0,22.46-18.2,40.66-40.66,40.66h40.66c22.46,0,40.66-18.2,40.66-40.66H126.9z"/>
<path d="M417.71,261.95l-66.76-145.67l16.19-8.06l-6.06-12.13l-15.78,7.86l-2.13-4.66c-1.56-3.4-5.58-4.89-8.99-3.33
	c-1.48,0.68-2.66,1.86-3.33,3.33l-1.9,4.16c-11.49-5.33-24-8.11-36.67-8.11h-56.93V81.78h13.55V68.23h-11.65l4.87-19.5
	c3.74-14.97-5.36-30.15-20.33-33.89s-30.15,5.36-33.89,20.33c-1.11,4.45-1.11,9.1,0,13.55l4.87,19.5h-11.65v13.55h13.56v13.55h-56.9
	c-12.68,0.01-25.21,2.79-36.7,8.13l-1.9-4.16c-1.56-3.4-5.58-4.89-8.99-3.33c-1.48,0.68-2.66,1.86-3.33,3.33l-2.13,4.66l-15.78-7.9
	l-6.06,12.14l16.19,8.09L12.3,261.95l0,0c-0.41,0.88-0.62,1.85-0.62,2.83c0.03,26.19,21.25,47.41,47.44,47.44h67.77
	c26.19-0.03,47.41-21.25,47.44-47.44c-0.01-0.98-0.25-1.93-0.68-2.81l0,0l-66.95-146.22c9.73-4.51,20.33-6.85,31.06-6.85h56.9
	v247.96l-23.14,23.14h-24.3c-18.71,0.02-33.87,15.18-33.89,33.89c0,3.74,3.04,6.78,6.78,6.78h189.77c3.74,0,6.78-3.04,6.78-6.78
	c-0.02-18.71-15.18-33.87-33.89-33.89h-24.3l-23.14-23.14V108.89h56.93c10.73,0,21.33,2.34,31.06,6.85l-67.04,146.2l0,0
	c-0.41,0.89-0.62,1.85-0.62,2.83c0.03,26.19,21.25,47.41,47.44,47.44h67.77c26.19-0.03,47.41-21.25,47.44-47.44
	c-0.01-0.98-0.25-1.93-0.68-2.81L417.71,261.95z M126.9,298.66H59.12c-16.1-0.02-29.97-11.34-33.21-27.11h134.19
	C156.87,287.31,143,298.64,126.9,298.66z M157,257.99H29.02l62.26-135.83c1.14,0.3,2.33,0.3,3.47,0L157,257.99z M203.67,33.09
	c5.28-6.26,14.63-7.06,20.89-1.78c0.64,0.54,1.24,1.14,1.78,1.78c2.74,3.49,3.71,8.05,2.62,12.35l-5.7,22.79h-16.52l-5.7-22.79
	C199.96,41.14,200.93,36.58,203.67,33.09z M208.23,95.34V81.78h13.55v13.55L208.23,95.34L208.23,95.34z M221.78,108.89v243.99
	h-13.55V108.89H221.78z M282.78,393.54c8.61,0.01,16.29,5.44,19.17,13.55h-173.9c2.88-8.12,10.56-13.54,19.17-13.55H282.78z
	 M239.31,379.99H190.7l13.55-13.55h21.5L239.31,379.99z M335.25,122.19c1.12,0.39,2.35,0.35,3.43-0.14l62.31,135.95H273.01
	L335.25,122.19z M370.88,298.66h-67.77c-16.1-0.02-29.97-11.34-33.21-27.11h134.19C400.85,287.31,386.99,298.64,370.88,298.66z"/>
</svg>
