<?xml version="1.0" encoding="utf-8"?>
<!-- Generator: Adobe Illustrator 24.0.2, SVG Export Plug-In . SVG Version: 6.00 Build 0)  -->
<svg version="1.1" id="Layer_1" xmlns="http://www.w3.org/2000/svg" xmlns:xlink="http://www.w3.org/1999/xlink" x="0px" y="0px"
	 viewBox="0 0 432 432" style="enable-background:new 0 0 432 432;" xml:space="preserve">
<style type="text/css">
	.st0{fill:#FF8719;}
	.st1{fill:#91562F;}
	.st2{fill:#054AB3;}
	.st3{fill:#F9B44D;}
	.st4{fill:#F0E4D6;}
	.st5{opacity:0.5;}
	.st6{fill:#FFFFFF;}
	.st7{opacity:0.3;}
	.st8{fill:#E6E9ED;}
	.st9{opacity:0.7;}
	.st10{fill:#FF8719;stroke:#000000;stroke-width:6;stroke-miterlimit:10;}
	.st11{fill:#054AB3;stroke:#000000;stroke-width:6;stroke-miterlimit:10;}
	.st12{fill:#FF8719;stroke:#000000;stroke-width:7;stroke-miterlimit:10;}
</style>
<path class="st2" d="M364.67,59.89l-56.12,60.8l-3.24-16.18c-0.39-1.93-1.82-3.49-3.72-4.03c-1.89-0.54-3.93,0.02-5.28,1.46
	l-49.15,52.39l-24.23,5.07c-5.5,1.33-10.81,3.4-15.76,6.14c-0.39,0.28-0.77,0.59-1.11,0.94c-3.5-2.37-7.39-4.12-11.49-5.16
	c-10.18-2.27-17.62,6.17-20.68,11.88c-2.04-0.06-4.08,0.16-6.06,0.65c-5.77,1.15-10.32,5.61-11.57,11.35
	c-0.35,1.63-0.48,3.31-0.37,4.97c-0.22,0.01-0.47-0.03-0.69,0c-4.54,0.22-8.66,2.71-10.97,6.62c-2.59,6.03-2.68,12.85-0.26,18.95
	c-2.91,1.42-5.29,3.75-6.79,6.63c-1.69,3.43-2.25,7.31-1.6,11.08c-0.85-0.92-2-1.5-3.24-1.64c-2.14-0.21-4.19,0.9-5.2,2.81
	l-68.38,131.5c-1.22,2.34-0.52,5.22,1.64,6.74c2.16,1.52,5.11,1.2,6.89-0.74l56.12-60.8l3.24,16.18c0.39,1.93,1.82,3.49,3.72,4.03
	c1.89,0.54,3.93-0.02,5.28-1.46l36.94-39.44c8.14,5.84,16.82,10.91,25.91,15.13c5.03,2.31,9.88,5,14.5,8.06
	c0.57,0.9,1.42,2.05,2.41,3.37c-1.31,5.22-0.65,10.73,1.84,15.5l16.94,32.61c2.7,5.24,8.11,8.52,14.01,8.51h86.6
	c1.33,0.01,2.61-0.51,3.56-1.43c0.05-0.04,0.11-0.06,0.16-0.11l0,0l0,0l1-0.99l0,0c7.98-7.95,8.63-20.66,1.5-29.38l-44.34-54.6
	c-0.05-0.2-0.11-0.39-0.18-0.57c-0.43-0.76-1.04-1.39-1.79-1.84l-5.87-7.22c-2.57-3.18-6.43-5.05-10.52-5.08l2.52-26.52
	c0.01-0.09,0.1-0.71,0.11-0.81l3.34-34.38c1.04-5.16-0.24-10.52-3.5-14.66l-6.87-13.68l12.24-13.03l3.52,21.08
	c0.36,2.19,2.06,3.91,4.24,4.31c2.18,0.4,4.38-0.61,5.49-2.52l73.64-126.24c1.35-2.32,0.74-5.28-1.42-6.88
	C369.5,57.64,366.49,57.92,364.67,59.89z M192.3,171.58c3.85,1.11,7.45,2.97,10.59,5.46c0.2,2.19,0.71,4.34,1.51,6.38
	c2.44,7.62,9.76,12.6,17.75,12.08l4.21,4.41c0.37,0.38,0.79,0.71,1.25,0.97c0.12,1.15,0.02,2.32-0.29,3.44
	c-0.62,2.79-7.9,1.53-7.95,1.52c-0.58-0.11-1.17-0.12-1.75-0.04c-3.47-3.15-8.46-7.86-14.39-14.04
	c-5.37-6.17-11.68-11.46-18.69-15.67C186.24,173.83,189.11,170.9,192.3,171.58z M172.87,242.6c-0.26-0.21-0.54-0.39-0.84-0.55
	c-0.27-0.22-0.56-0.4-0.87-0.57c-0.33-0.1-0.67-0.17-1.02-0.21c-0.31-0.09-0.63-0.15-0.95-0.18c-0.36,0.03-0.71,0.09-1.05,0.19
	c-0.31,0.04-0.62,0.1-0.92,0.19c-0.33,0.17-0.63,0.37-0.91,0.59c-0.28,0.15-0.55,0.32-0.8,0.52l-8.14,7.97
	c-4.34-6.84-8.23-12.94-10.24-16.09l-0.79-1.25c-0.84-1.95-0.75-4.17,0.24-6.05c0.88-1.74,2.69-2.81,4.64-2.74
	c0.98-0.05,1.96,0.05,2.91,0.28c10.54,2.6,20.24,7.88,28.14,15.33c2.03,1.67,3.92,3.38,5.51,4.97c0.55,0.52,0.82,1.28,0.71,2.04
	c-0.11,0.5-0.39,0.95-0.8,1.25c-2.28,0.78-4.69,1.09-7.09,0.92c-0.63-0.07-1.23-0.33-1.72-0.74L172.87,242.6z M235.97,194.32
	c2.73-0.09,5.41,0.71,7.66,2.26c0.53,0.46,0.94,1.04,1.18,1.69l-7.1,7.57C238.87,201.93,238.23,197.71,235.97,194.32z M170.4,184.05
	c6.72-1.67,12.63,1.81,25.25,14.98c6.47,6.87,13.33,13.36,20.53,19.45c0.33,0.24,0.69,0.44,1.06,0.59c0.44,0.64,1,1.17,1.67,1.56
	c0.11,1.15,0.01,2.3-0.29,3.42c-0.46,2.08-4.64,1.9-6.76,1.67c-8.29-7.6-29.79-26.49-45.25-33.14c0.11-0.69,0.07-1.38-0.09-2.06
	c-0.49-1.37-0.33-2.9,0.42-4.15C167.68,185.12,168.95,184.27,170.4,184.05z M153.38,202.02c0.2-0.35,0.67-1.16,2.93-1.39
	c0.96-0.05,1.91,0.08,2.83,0.37c11,2.96,32.09,19.93,46.81,33.57l1.05,0.98c0.06,1.07-0.05,2.14-0.32,3.18
	c-0.07,0.21-0.19,0.4-0.33,0.56l-0.4,0.43c-1.97,1.42-7.18,0.54-7.24,0.52c-0.5-0.08-1-0.09-1.5-0.02c-0.53-0.92-1.17-1.77-1.9-2.54
	c-1.94-1.94-4.09-3.88-6.39-5.78c-9.19-8.5-20.41-14.52-32.58-17.47c-0.65-0.14-1.19-0.19-1.78-0.27
	C152.81,210.36,152.39,206.09,153.38,202.02z M149.78,258.24l-4.91,5.24l-6.72-23.54l0.12,0.18
	C140.45,243.58,144.93,250.6,149.78,258.24z M134.99,315.4l-3.26-16.27c-0.39-1.94-1.83-3.5-3.73-4.03c-1.9-0.53-3.95,0.04-5.29,1.5
	l-36.44,39.48l44.14-84.88l6.89,24.12c0.52,1.82,1.98,3.22,3.82,3.67c1.84,0.45,3.78-0.13,5.08-1.52l13.89-14.83l9.1-8.91l2.44,2.4
	c2.18,1.99,4.94,3.25,7.88,3.58c2.77,0.2,5.55,0.01,8.27-0.56l-18.85,20.11c-0.17,0.14-0.32,0.28-0.47,0.44L134.99,315.4z
	 M332.61,363.27h-84.4c-1.96,0-3.77-1.09-4.67-2.84l-12.47-24.02c10.2-11.83,42.81-31.24,59.22-40.34l42.59,52.44
	C336.42,352.84,336.3,359.09,332.61,363.27z M280.71,284.27l2.85,3.51c-13.16,7.34-43.42,24.91-57.52,38.71
	c-1.7-4.44-0.5-9.47,3.02-12.67c6.85-6.53,14.15-12.59,21.84-18.11c8.36-5.25,17.32-9.47,26.7-12.56c0.22-0.06,0.45-0.09,0.68-0.09
	C279.23,283.08,280.12,283.53,280.71,284.27z M273.97,208.94c-0.04,0.2-0.07,0.4-0.09,0.6l-6.36,65.91
	c-7.73,3.16-15.18,6.97-22.27,11.38c-8.18,5.87-15.95,12.29-23.26,19.2c-0.35,0.32-0.62,0.68-0.94,1.01
	c-5.34-4.45-11.34-8.06-17.77-10.7c-8.15-3.83-15.98-8.32-23.41-13.42l32.87-35.07c0.82-0.67,1.55-1.44,2.16-2.3l4.53-4.83
	c-0.4,0.98-0.48,2.06-0.24,3.09c0.78,3.01,8,29.57,21.46,36.2c2.61,1.29,5.76,0.21,7.04-2.39c1.28-2.61,0.21-5.76-2.39-7.04
	c-6.92-3.41-13.44-19.85-15.93-29.4c-0.35-1.35-1.22-2.51-2.42-3.22c-1.2-0.71-2.64-0.91-3.99-0.55c-0.27,0.1-0.52,0.23-0.77,0.38
	l32-34.14c0.34-0.36,0.62-0.76,0.85-1.2l0.05-0.11c0.02-0.03,0.01-0.07,0.03-0.1c0.08-0.23,0.14-0.46,0.19-0.7
	c0.18-0.49,0.28-1,0.3-1.52c0.11-4.37-1.75-8.56-5.07-11.41c-5.65-4.89-15.28-6.11-28.67-3.62c-2.32,0.52-4.72-0.46-6.01-2.47
	c-1.56-2.08-2.45-4.58-2.55-7.18c0.08-0.42,0.11-0.85,0.09-1.28c3.79-1.91,7.77-3.39,11.89-4.42l24.96-5.22
	c0.28-0.02,0.56-0.07,0.83-0.14c0.85-0.04,1.69,0.24,2.35,0.77l9.36,18.63l0.04,0.08l8.86,17.65c0.19,0.37,0.42,0.72,0.68,1.03
	C273.88,204.25,274.48,206.65,273.97,208.94z M297.69,174.47l-2.87-17.2c-0.33-1.97-1.75-3.59-3.66-4.17
	c-1.91-0.58-3.99-0.02-5.36,1.43l-16.87,17.96l-6.46-12.88c-0.2-0.39-0.44-0.75-0.72-1.07c-0.67-0.75-1.42-1.42-2.23-2L297,116.59
	l3.26,16.28c0.39,1.94,1.83,3.5,3.73,4.03c1.9,0.53,3.95-0.04,5.29-1.5l30.42-32.96L297.69,174.47z"/>
<path d="M332.61,363.28h-84.4c-1.96,0-3.77-1.1-4.66-2.84l-12.48-24.02c10.2-11.83,42.81-31.24,59.22-40.34l42.59,52.44
	C336.42,352.84,336.3,359.09,332.61,363.28z"/>
<path class="st0" d="M339.7,102.45l-42.01,72.02l-2.87-17.2c-0.33-1.97-1.75-3.59-3.66-4.17c-1.91-0.58-3.99-0.02-5.36,1.44
	l-16.87,17.96l-6.47-12.88c-0.19-0.39-0.43-0.75-0.72-1.07c-0.66-0.75-1.41-1.42-2.23-2L297,116.59l3.25,16.28
	c0.39,1.94,1.83,3.5,3.74,4.03c1.9,0.54,3.94-0.04,5.29-1.49L339.7,102.45z"/>
<path class="st0" d="M187.76,259.13l-18.85,20.11c-0.16,0.14-0.32,0.28-0.47,0.44l-33.45,35.72l-3.26-16.28
	c-0.39-1.93-1.83-3.49-3.73-4.03c-1.91-0.53-3.95,0.05-5.29,1.5l-36.44,39.48l44.14-84.88l6.89,24.11c0.52,1.83,1.98,3.23,3.82,3.67
	c1.84,0.45,3.78-0.13,5.07-1.52l13.89-14.83l9.1-8.9l2.44,2.39c2.18,1.99,4.94,3.25,7.88,3.58
	C182.26,259.88,185.05,259.7,187.76,259.13z"/>
</svg>
